<svg xmlns="http://www.w3.org/2000/svg" viewBox="0 0 512 512"><title>an</title><rect width="512" height="512" fill="#fff"/><rect x="166.83" width="170.67" height="512" fill="#dc171d"/><rect y="170.67" width="512" height="170.67" fill="#012a87"/><polygon points="252.16 177.78 245.57 198.07 255.71 201.36 252.16 177.78" fill="#fff"/><polygon points="252.16 177.78 258.75 198.07 248.61 201.36 252.16 177.78" fill="#fff"/><polygon points="272.45 192.52 251.12 192.52 251.12 203.19 272.45 192.52" fill="#fff"/><polygon points="272.45 192.52 255.19 205.06 248.92 196.43 272.45 192.52" fill="#fff"/><polygon points="231.87 192.52 249.13 205.06 255.4 196.43 231.87 192.52" fill="#fff"/><polygon points="231.87 192.52 253.2 192.52 253.2 203.19 231.87 192.52" fill="#fff"/><polygon points="264.7 216.37 258.11 196.08 247.96 199.38 264.7 216.37" fill="#fff"/><polygon points="264.7 216.37 247.44 203.83 253.71 195.2 264.7 216.37" fill="#fff"/><polygon points="239.62 216.37 256.88 203.83 250.61 195.2 239.62 216.37" fill="#fff"/><polygon points="239.62 216.37 246.21 196.08 256.36 199.38 239.62 216.37" fill="#fff"/><polygon points="365.94 224.91 359.35 245.19 369.49 248.49 365.94 224.91" fill="#fff"/><polygon points="365.94 224.91 372.53 245.19 362.39 248.49 365.94 224.91" fill="#fff"/><polygon points="386.23 239.65 364.89 239.65 364.89 250.31 386.23 239.65" fill="#fff"/><polygon points="386.23 239.65 368.97 252.19 362.7 243.56 386.23 239.65" fill="#fff"/><polygon points="345.65 239.65 362.91 252.19 369.18 243.56 345.65 239.65" fill="#fff"/><polygon points="345.65 239.65 366.98 239.65 366.98 250.31 345.65 239.65" fill="#fff"/><polygon points="378.48 263.5 371.88 243.21 361.74 246.5 378.48 263.5" fill="#fff"/><polygon points="378.48 263.5 361.22 250.96 367.49 242.33 378.48 263.5" fill="#fff"/><polygon points="353.4 263.5 370.66 250.96 364.39 242.33 353.4 263.5" fill="#fff"/><polygon points="353.4 263.5 359.99 243.21 370.13 246.5 353.4 263.5" fill="#fff"/><polygon points="299.29 291.56 292.7 311.85 302.84 315.14 299.29 291.56" fill="#fff"/><polygon points="299.29 291.56 305.88 311.85 295.74 315.14 299.29 291.56" fill="#fff"/><polygon points="319.58 306.3 298.24 306.3 298.24 316.96 319.58 306.3" fill="#fff"/><polygon points="319.58 306.3 302.32 318.84 296.05 310.21 319.58 306.3" fill="#fff"/><polygon points="279 306.3 296.26 318.84 302.53 310.21 279 306.3" fill="#fff"/><polygon points="279 306.3 300.33 306.3 300.33 316.96 279 306.3" fill="#fff"/><polygon points="311.83 330.15 305.24 309.86 295.09 313.15 311.83 330.15" fill="#fff"/><polygon points="311.83 330.15 294.57 317.61 300.84 308.98 311.83 330.15" fill="#fff"/><polygon points="286.75 330.15 304.01 317.61 297.74 308.98 286.75 330.15" fill="#fff"/><polygon points="286.75 330.15 293.34 309.86 303.49 313.15 286.75 330.15" fill="#fff"/><polygon points="138.38 224.91 144.97 245.19 134.83 248.49 138.38 224.91" fill="#fff"/><polygon points="138.38 224.91 131.79 245.19 141.93 248.49 138.38 224.91" fill="#fff"/><polygon points="118.09 239.65 139.43 239.65 139.43 250.31 118.09 239.65" fill="#fff"/><polygon points="118.09 239.65 135.35 252.19 141.62 243.56 118.09 239.65" fill="#fff"/><polygon points="158.67 239.65 141.41 252.19 135.14 243.56 158.67 239.65" fill="#fff"/><polygon points="158.67 239.65 137.34 239.65 137.34 250.31 158.67 239.65" fill="#fff"/><polygon points="125.84 263.5 132.44 243.21 142.58 246.5 125.84 263.5" fill="#fff"/><polygon points="125.84 263.5 143.1 250.96 136.83 242.33 125.84 263.5" fill="#fff"/><polygon points="150.92 263.5 133.66 250.96 139.93 242.33 150.92 263.5" fill="#fff"/><polygon points="150.92 263.5 144.33 243.21 134.19 246.5 150.92 263.5" fill="#fff"/><polygon points="205.03 291.56 211.62 311.85 201.48 315.14 205.03 291.56" fill="#fff"/><polygon points="205.03 291.56 198.44 311.85 208.58 315.14 205.03 291.56" fill="#fff"/><polygon points="184.74 306.3 206.08 306.3 206.08 316.96 184.74 306.3" fill="#fff"/><polygon points="184.74 306.3 202 318.84 208.27 310.21 184.74 306.3" fill="#fff"/><polygon points="225.32 306.3 208.06 318.84 201.79 310.21 225.32 306.3" fill="#fff"/><polygon points="225.32 306.3 203.99 306.3 203.99 316.96 225.32 306.3" fill="#fff"/><polygon points="192.49 330.15 199.09 309.86 209.23 313.15 192.49 330.15" fill="#fff"/><polygon points="192.49 330.15 209.75 317.61 203.48 308.98 192.49 330.15" fill="#fff"/><polygon points="217.57 330.15 200.31 317.61 206.58 308.98 217.57 330.15" fill="#fff"/><polygon points="217.57 330.15 210.98 309.86 200.83 313.15 217.57 330.15" fill="#fff"/></svg>