<svg xmlns="http://www.w3.org/2000/svg" id="flag-icon-css-an" viewBox="0 0 512 512"><defs><style>.a{fill:#fff;}.b{fill:#dc171d;}.c{fill:#012a87;}</style></defs><title>an</title><rect class="a" width="512" height="512"/><rect class="b" x="184.9" width="142.2" height="512"/><rect class="c" y="176" width="512" height="160"/><polygon class="a" points="256 182.7 250.5 201.7 259 204.8 256 182.7"/><polygon class="a" points="256 182.7 261.5 201.7 253 204.8 256 182.7"/><polygon class="a" points="272.9 196.5 255.1 196.5 255.1 206.5 272.9 196.5"/><polygon class="a" points="272.9 196.5 258.5 208.2 253.3 200.2 272.9 196.5"/><polygon class="a" points="239.1 196.5 253.5 208.2 258.7 200.2 239.1 196.5"/><polygon class="a" points="239.1 196.5 256.9 196.5 256.9 206.5 239.1 196.5"/><polygon class="a" points="266.4 218.8 261 199.8 252.5 202.9 266.4 218.8"/><polygon class="a" points="266.4 218.8 252.1 207.1 257.3 199 266.4 218.8"/><polygon class="a" points="245.6 218.8 259.9 207.1 254.7 199 245.6 218.8"/><polygon class="a" points="245.6 218.8 251 199.8 259.5 202.9 245.6 218.8"/><polygon class="a" points="350.8 226.8 345.3 245.9 353.8 249 350.8 226.8"/><polygon class="a" points="350.8 226.8 356.3 245.9 347.9 249 350.8 226.8"/><polygon class="a" points="367.7 240.7 349.9 240.7 349.9 250.7 367.7 240.7"/><polygon class="a" points="367.7 240.7 353.3 252.4 348.1 244.3 367.7 240.7"/><polygon class="a" points="333.9 240.7 348.3 252.4 353.5 244.3 333.9 240.7"/><polygon class="a" points="333.9 240.7 351.7 240.7 351.7 250.7 333.9 240.7"/><polygon class="a" points="361.3 263 355.8 244 347.3 247.1 361.3 263"/><polygon class="a" points="361.3 263 346.9 251.3 352.1 243.2 361.3 263"/><polygon class="a" points="340.4 263 354.7 251.3 349.5 243.2 340.4 263"/><polygon class="a" points="340.4 263 345.9 244 354.3 247.1 340.4 263"/><polygon class="a" points="295.3 289.3 289.8 308.4 298.2 311.4 295.3 289.3"/><polygon class="a" points="295.3 289.3 300.8 308.4 292.3 311.4 295.3 289.3"/><polygon class="a" points="312.2 303.2 294.4 303.2 294.4 313.2 312.2 303.2"/><polygon class="a" points="312.2 303.2 297.8 314.9 292.6 306.8 312.2 303.2"/><polygon class="a" points="278.4 303.2 292.7 314.9 298 306.8 278.4 303.2"/><polygon class="a" points="278.4 303.2 296.1 303.2 296.1 313.2 278.4 303.2"/><polygon class="a" points="305.7 325.5 300.2 306.5 291.8 309.6 305.7 325.5"/><polygon class="a" points="305.7 325.5 291.3 313.8 296.6 305.7 305.7 325.5"/><polygon class="a" points="284.8 325.5 299.2 313.8 294 305.7 284.8 325.5"/><polygon class="a" points="284.8 325.5 290.3 306.5 298.8 309.6 284.8 325.5"/><polygon class="a" points="161.2 226.8 166.7 245.9 158.2 249 161.2 226.8"/><polygon class="a" points="161.2 226.8 155.7 245.9 164.1 249 161.2 226.8"/><polygon class="a" points="144.3 240.7 162.1 240.7 162.1 250.7 144.3 240.7"/><polygon class="a" points="144.3 240.7 158.7 252.4 163.9 244.3 144.3 240.7"/><polygon class="a" points="178.1 240.7 163.7 252.4 158.5 244.3 178.1 240.7"/><polygon class="a" points="178.1 240.7 160.3 240.7 160.3 250.7 178.1 240.7"/><polygon class="a" points="150.7 263 156.2 244 164.7 247.1 150.7 263"/><polygon class="a" points="150.7 263 165.1 251.3 159.9 243.2 150.7 263"/><polygon class="a" points="171.6 263 157.3 251.3 162.5 243.2 171.6 263"/><polygon class="a" points="171.6 263 166.1 244 157.7 247.1 171.6 263"/><polygon class="a" points="216.7 289.3 222.2 308.4 213.8 311.4 216.7 289.3"/><polygon class="a" points="216.7 289.3 211.2 308.4 219.7 311.4 216.7 289.3"/><polygon class="a" points="199.8 303.2 217.6 303.2 217.6 313.2 199.8 303.2"/><polygon class="a" points="199.8 303.2 214.2 314.9 219.4 306.8 199.8 303.2"/><polygon class="a" points="233.6 303.2 219.3 314.9 214 306.8 233.6 303.2"/><polygon class="a" points="233.6 303.2 215.9 303.2 215.9 313.2 233.6 303.2"/><polygon class="a" points="206.3 325.5 211.8 306.5 220.2 309.6 206.3 325.5"/><polygon class="a" points="206.3 325.5 220.7 313.8 215.4 305.7 206.3 325.5"/><polygon class="a" points="227.2 325.5 212.8 313.8 218 305.7 227.2 325.5"/><polygon class="a" points="227.2 325.5 221.7 306.5 213.2 309.6 227.2 325.5"/></svg>