<svg xmlns="http://www.w3.org/2000/svg" id="flag-icon-css-xc" viewBox="0 0 512 512"><defs><style>.a{fill:#0f204b;}.b{fill:#ffb612;}</style></defs><title>xc</title><rect class="a" width="512" height="512"/><polygon class="b" points="50.7 198.4 53.7 207.8 63.6 207.8 55.6 213.6 58.7 223 50.7 217.1 42.7 223 45.3 213.4 37.7 207.8 47.3 207.8 50.7 198.4"/><polygon class="b" points="123.7 225.6 126.8 235 136.6 235 128.6 240.8 131.6 250.1 123.7 244.3 115.8 250.1 118.3 240.6 110.8 235 120.4 235 123.7 225.6"/><polygon class="b" points="159.9 264.6 162.9 274 172.7 274 164.7 279.7 167.8 289.1 159.9 283.2 151.9 289.1 154.4 279.6 147 274 156.5 273.9 159.9 264.6"/><polygon class="b" points="305.5 343.2 308.5 352.5 318.4 352.5 310.4 358.4 313.5 367.7 305.5 361.9 297.5 367.7 300.1 358.2 292.6 352.5 302.1 352.5 305.5 343.2"/><polygon class="b" points="196.7 304.8 199.8 314.1 209.6 314.1 201.6 319.9 204.7 329.3 196.7 323.4 188.8 329.3 191.3 319.7 183.9 314.1 193.4 314.1 196.7 304.8"/><polygon class="b" points="273.6 388.6 276.6 397.9 286.4 397.9 278.4 403.7 281.5 413.1 273.6 407.3 265.6 413.1 268.2 403.6 260.7 397.9 270.3 397.9 273.6 388.6"/><polygon class="b" points="191.5 361.7 194.5 371.1 204.4 371.1 196.4 376.9 199.4 386.3 191.5 380.5 183.5 386.3 186.1 376.7 178.6 371.1 188.2 371.1 191.5 361.7"/><polygon class="b" points="456 96.7 460.8 111.5 476.2 111.5 463.8 120.6 468.5 135.3 456 126.2 443.5 135.3 447.5 120.3 435.8 111.5 450.8 111.4 456 96.7"/></svg>