<svg xmlns="http://www.w3.org/2000/svg" id="flag-icon-css-xg" viewBox="0 0 512 512"><defs><style>.a{fill:#fff;}.b{fill:red;}.c{fill:blue;}</style></defs><title>xg</title><path class="a" d="M0,0H213.4V192H0Z"/><path class="a" d="M298.6,0H512V192H298.6Z"/><path class="a" d="M298.6,320H512V512H298.6Z"/><path class="a" d="M0,320H213.4V512H0Z"/><path class="b" d="M256,0h42.6V192H512V320H298.6V512H256Z"/><path d="M343.3,93.4a94.8,94.8,0,0,0,2.8-17.1,18.9,18.9,0,0,0,6.7,6.7,74.7,74.7,0,0,1-4.2-13.2,28.2,28.2,0,0,0,8.2,5.1c-9-10.5-13-40-13-43.4h2.4c.2,2.4,1.7,4.3,3.5,4.5,5.4,0,10.6-5.3,10.7-5.3-6.7,0-7.4-5.3-10.7-5.3-1.8.1-3.3,2-3.5,4.5h-2.4V25.3c1.8-.6,3.1-2.8,3-5.3,0-5-3.6-6.1-3.6-16.1,0,10-3.6,11.1-3.6,16.1-.1,2.5,1.1,4.7,3,5.3v4.6h-2.4c-.2-2.4-1.7-4.3-3.5-4.5-3.4,0-4,5.3-10.7,5.3.2,0,5.4,5.3,10.7,5.3,1.8-.1,3.3-2,3.5-4.5h2.4c0,3.4-4.2,33.1-13,43.4a28.2,28.2,0,0,0,8.2-5.1,74.7,74.7,0,0,1-4.2,13.2,18.9,18.9,0,0,0,6.7-6.7C341,81.6,341.7,87.9,343.3,93.4Z"/><path d="M467.4,93.4a94.8,94.8,0,0,0,2.8-17.1,18.9,18.9,0,0,0,6.7,6.7A74.8,74.8,0,0,1,472.8,70a28.2,28.2,0,0,0,8.2,5.1c-9-10.5-13-40.1-13-43.5h2.4c.2,2.4,1.7,4.3,3.5,4.5,5.4,0,10.6-5.3,10.7-5.3-6.7,0-7.4-5.3-10.7-5.3-1.8.1-3.3,2-3.5,4.5H468V25.3c1.8-.6,3.1-2.8,3-5.3,0-5-3.6-6.1-3.6-16.1,0,10-3.6,11.1-3.6,16.1-.1,2.5,1.1,4.7,3,5.3v4.6h-2.4c-.2-2.4-1.7-4.3-3.5-4.5-3.4,0-4,5.3-10.7,5.3.2,0,5.4,5.3,10.7,5.3,1.8-.1,3.3-2,3.5-4.5h2.4c0,3.4-4.2,33.1-13,43.4a28.2,28.2,0,0,0,8.2-5.1,74.7,74.7,0,0,1-4.2,13.2,18.9,18.9,0,0,0,6.7-6.7A102.8,102.8,0,0,0,467.4,93.4Z"/><path d="M405.4,140.8a94.8,94.8,0,0,0,2.8-17.1,18.9,18.9,0,0,0,6.7,6.7,74.7,74.7,0,0,1-4.2-13.2,28.2,28.2,0,0,0,8.2,5.1c-8.9-10.3-13-40-13-43.4h2.4c.2,2.4,1.7,4.3,3.5,4.5,5.4,0,10.6-5.3,10.7-5.3-6.7,0-7.4-5.3-10.7-5.3-1.8.1-3.3,2-3.5,4.5h-2.4V72.6c1.8-.6,3.1-2.8,3-5.3,0-5-3.6-6.1-3.6-16.1,0,10-3.6,11.1-3.6,16.1-.1,2.5,1.1,4.7,3,5.3v4.6h-2.4c-.2-2.4-1.7-4.3-3.5-4.5-3.4,0-4,5.3-10.7,5.3.2,0,5.4,5.3,10.7,5.3,1.8-.1,3.3-2,3.5-4.5h2.4c0,3.4-4.2,33.1-13,43.4a28.2,28.2,0,0,0,8.2-5.1,74.7,74.7,0,0,1-4.2,13.2,18.9,18.9,0,0,0,6.7-6.7C403,129,403.8,135.3,405.4,140.8Z"/><path d="M343.3,188.2a94.8,94.8,0,0,0,2.8-17.1,18.9,18.9,0,0,0,6.7,6.7,74.7,74.7,0,0,1-4.2-13.2,28.2,28.2,0,0,0,8.2,5.1c-9-10.5-13-40-13-43.4h2.4c.2,2.4,1.7,4.3,3.5,4.5,5.4,0,10.6-5.3,10.7-5.3-6.7,0-7.4-5.3-10.7-5.3-1.8.1-3.3,2-3.5,4.5h-2.4V120c1.8-.6,3.1-2.8,3-5.3,0-5-3.6-6.1-3.6-16.1,0,10-3.6,11.1-3.6,16.1-.1,2.5,1.1,4.7,3,5.3v4.6h-2.4c-.2-2.4-1.7-4.3-3.5-4.5-3.4,0-4,5.3-10.7,5.3.2,0,5.4,5.3,10.7,5.3,1.8-.1,3.3-2,3.5-4.5h2.4c0,3.4-4.2,33.1-13,43.4a28.2,28.2,0,0,0,8.2-5.1,74.7,74.7,0,0,1-4.2,13.2,18.9,18.9,0,0,0,6.7-6.7C341,176.3,341.7,182.6,343.3,188.2Z"/><path d="M467.4,188.2a94.8,94.8,0,0,0,2.8-17.1,18.9,18.9,0,0,0,6.7,6.7,74.7,74.7,0,0,1-4.2-13.2,28.2,28.2,0,0,0,8.2,5.1c-9-10.5-13-40-13-43.4h2.4c.2,2.4,1.7,4.3,3.5,4.5,5.4,0,10.6-5.3,10.7-5.3-6.7,0-7.4-5.3-10.7-5.3-1.8.1-3.3,2-3.5,4.5h-2.4V120c1.8-.6,3.1-2.8,3-5.3,0-5-3.6-6.1-3.6-16.1,0,10-3.6,11.1-3.6,16.1-.1,2.5,1.1,4.7,3,5.3v4.6h-2.4c-.2-2.4-1.7-4.3-3.5-4.5-3.4,0-4,5.3-10.7,5.3.2,0,5.4,5.3,10.7,5.3,1.8-.1,3.3-2,3.5-4.5h2.4c0,3.4-4.2,33.1-13,43.4a28.2,28.2,0,0,0,8.2-5.1,74.7,74.7,0,0,1-4.2,13.2,18.9,18.9,0,0,0,6.7-6.7C465,176.3,465.8,182.6,467.4,188.2Z"/><path d="M44.6,413.4a94.8,94.8,0,0,0,2.8-17.1,18.9,18.9,0,0,0,6.7,6.7A74.7,74.7,0,0,1,50,389.9a28.2,28.2,0,0,0,8.2,5.1c-9-10.5-13-40-13-43.4h2.4c.2,2.4,1.7,4.3,3.5,4.5,5.4,0,10.6-5.3,10.7-5.3-6.7,0-7.4-5.3-10.7-5.3-1.8.1-3.3,2-3.5,4.5H45.2v-4.6c1.8-.6,3.1-2.8,3-5.3,0-5-3.6-6.1-3.6-16.1,0,10-3.6,11.1-3.6,16.1-.1,2.5,1.1,4.7,3,5.3v4.6H41.6c-.2-2.4-1.7-4.3-3.5-4.5-3.4,0-4,5.3-10.7,5.3.2,0,5.4,5.3,10.7,5.3,1.8-.1,3.3-2,3.5-4.5H44c0,3.4-4.2,33.1-13,43.4a28,28,0,0,0,8.2-5A74.7,74.7,0,0,1,35,403.2a18.9,18.9,0,0,0,6.7-6.7A103.5,103.5,0,0,0,44.6,413.4Z"/><path d="M168.7,413.4a94.8,94.8,0,0,0,2.8-17.1,18.9,18.9,0,0,0,6.7,6.7,74.7,74.7,0,0,1-4.2-13.2,28.2,28.2,0,0,0,8.2,5.1c-9-10.5-13-40-13-43.4h2.4c.2,2.4,1.7,4.3,3.5,4.5,5.4,0,10.6-5.3,10.7-5.3-6.7,0-7.4-5.3-10.7-5.3-1.8.1-3.3,2-3.5,4.5h-2.4v-4.6c1.8-.6,3.1-2.8,3-5.3,0-5-3.6-6.1-3.6-16.1,0,10-3.6,11.1-3.6,16.1-.1,2.5,1.1,4.7,3,5.3v4.6h-2.4c-.2-2.4-1.7-4.3-3.5-4.5-3.4,0-4,5.3-10.7,5.3.2,0,5.4,5.3,10.7,5.3,1.8-.1,3.3-2,3.5-4.5H168c0,3.4-4.2,33.1-13,43.4a28.2,28.2,0,0,0,8.2-5.1,74.7,74.7,0,0,1-4.2,13.2,18.9,18.9,0,0,0,6.7-6.7C166.4,401.6,167.1,407.9,168.7,413.4Z"/><path d="M106.6,460.8a94.8,94.8,0,0,0,2.8-17.1,18.9,18.9,0,0,0,6.7,6.7,74.7,74.7,0,0,1-4.2-13.2,28.2,28.2,0,0,0,8.2,5.1c-9-10.5-13-40-13-43.4h2.4c.2,2.4,1.7,4.3,3.5,4.5,5.4,0,10.6-5.3,10.7-5.3-6.7,0-7.4-5.3-10.7-5.3-1.8.1-3.3,2-3.5,4.5h-2.4v-4.6c1.8-.6,3.1-2.8,3-5.3,0-5-3.6-6.1-3.6-16.1,0,10-3.6,11.1-3.6,16.1-.1,2.5,1.1,4.7,3,5.3v4.6h-2.4c-.2-2.4-1.7-4.3-3.5-4.5-3.4,0-4,5.3-10.7,5.3.2,0,5.4,5.3,10.7,5.3,1.8-.1,3.3-2,3.5-4.5h2.4c0,3.4-4.2,33.1-13,43.4a28.2,28.2,0,0,0,8.2-5.1A74.7,74.7,0,0,1,97,450.5a18.9,18.9,0,0,0,6.7-6.7C104.4,449,105.1,455.3,106.6,460.8Z"/><path d="M44.6,508.2a94.8,94.8,0,0,0,2.8-17.1,18.9,18.9,0,0,0,6.7,6.7A74.7,74.7,0,0,1,50,484.6a28.2,28.2,0,0,0,8.2,5.1c-9-10.5-13-40-13-43.4h2.4c.2,2.4,1.7,4.3,3.5,4.5,5.4,0,10.6-5.3,10.7-5.3-6.7,0-7.4-5.3-10.7-5.3-1.8.1-3.3,2-3.5,4.5H45.2V440c1.8-.6,3.1-2.8,3-5.3,0-5-3.6-6.1-3.6-16.1,0,10-3.6,11.1-3.6,16.1-.1,2.5,1.1,4.7,3,5.3v4.6H41.6c-.2-2.4-1.7-4.3-3.5-4.5-3.4,0-4,5.3-10.7,5.3.2,0,5.4,5.3,10.7,5.3,1.8-.1,3.3-2,3.5-4.5H44c0,3.4-4.2,33.1-13,43.4a28,28,0,0,0,8.2-5A74.7,74.7,0,0,1,35,497.9a18.9,18.9,0,0,0,6.7-6.7A103.5,103.5,0,0,0,44.6,508.2Z"/><path d="M168.7,508.2a94.8,94.8,0,0,0,2.8-17.1,18.9,18.9,0,0,0,6.7,6.7,74.7,74.7,0,0,1-4.2-13.2,28.2,28.2,0,0,0,8.2,5.1c-9-10.5-13-40-13-43.4h2.4c.2,2.4,1.7,4.3,3.5,4.5,5.4,0,10.6-5.3,10.7-5.3-6.7,0-7.4-5.3-10.7-5.3-1.8.1-3.3,2-3.5,4.5h-2.4V440c1.8-.6,3.1-2.8,3-5.3,0-5-3.6-6.1-3.6-16.1,0,10-3.6,11.1-3.6,16.1-.1,2.5,1.1,4.7,3,5.3v4.6h-2.4c-.2-2.4-1.7-4.3-3.5-4.5-3.4,0-4,5.3-10.7,5.3.2,0,5.4,5.3,10.7,5.3,1.8-.1,3.3-2,3.5-4.5H168c0,3.4-4.2,33.1-13,43.4a28.2,28.2,0,0,0,8.2-5.1,74.7,74.7,0,0,1-4.2,13.2,18.9,18.9,0,0,0,6.7-6.7C166.4,496.3,167.1,502.6,168.7,508.2Z"/><path d="M343.3,413.4a94.8,94.8,0,0,0,2.8-17.1,18.9,18.9,0,0,0,6.7,6.7,74.7,74.7,0,0,1-4.2-13.2,28.2,28.2,0,0,0,8.2,5.1c-9-10.5-13-40-13-43.4h2.4c.2,2.4,1.7,4.3,3.5,4.5,5.4,0,10.6-5.3,10.7-5.3-6.7,0-7.4-5.3-10.7-5.3-1.8.1-3.3,2-3.5,4.5h-2.4v-4.6c1.8-.6,3.1-2.8,3-5.3,0-5-3.6-6.1-3.6-16.1,0,10-3.6,11.1-3.6,16.1-.1,2.5,1.1,4.7,3,5.3v4.6h-2.4c-.2-2.4-1.7-4.3-3.5-4.5-3.4,0-4,5.3-10.7,5.3.2,0,5.4,5.3,10.7,5.3,1.8-.1,3.3-2,3.5-4.5h2.4c0,3.4-4.2,33.1-13,43.4a28.2,28.2,0,0,0,8.2-5.1,74.7,74.7,0,0,1-4.2,13.2,18.9,18.9,0,0,0,6.7-6.7C341,401.6,341.7,407.9,343.3,413.4Z"/><path d="M467.4,413.4a94.8,94.8,0,0,0,2.8-17.1,18.9,18.9,0,0,0,6.7,6.7,74.7,74.7,0,0,1-4.2-13.2A28.2,28.2,0,0,0,481,395c-9-10.5-13-40-13-43.4h2.4c.2,2.4,1.7,4.3,3.5,4.5,5.4,0,10.6-5.3,10.7-5.3-6.7,0-7.4-5.3-10.7-5.3-1.8.2-3.3,2.1-3.4,4.5H468v-4.6c1.8-.6,3.1-2.8,3-5.3,0-5-3.6-6.1-3.6-16.1,0,10-3.6,11.1-3.6,16.1-.1,2.5,1.1,4.7,3,5.3v4.6h-2.4c-.2-2.4-1.7-4.3-3.5-4.5-3.4,0-4,5.3-10.7,5.3.2,0,5.4,5.3,10.7,5.3,1.8-.1,3.3-2,3.5-4.5h2.4c0,3.4-4.2,33.1-13,43.4a28.2,28.2,0,0,0,8.2-5.1,74.7,74.7,0,0,1-4.2,13.2,18.9,18.9,0,0,0,6.7-6.7A102.8,102.8,0,0,0,467.4,413.4Z"/><path d="M405.4,460.8a94.8,94.8,0,0,0,2.8-17.1,18.9,18.9,0,0,0,6.7,6.7,74.7,74.7,0,0,1-4.2-13.2,28.2,28.2,0,0,0,8.2,5.1c-9-10.5-13-40-13-43.4h2.4c.2,2.4,1.7,4.3,3.5,4.5,5.4,0,10.6-5.3,10.7-5.3-6.7,0-7.4-5.3-10.7-5.3-1.8.1-3.3,2-3.5,4.5h-2.4v-4.6c1.8-.6,3.1-2.8,3-5.3,0-5-3.6-6.1-3.6-16.1,0,10-3.6,11.1-3.6,16.1-.1,2.5,1.1,4.7,3,5.3v4.6h-2.4c-.2-2.4-1.7-4.3-3.5-4.5-3.4,0-4,5.3-10.7,5.3.2,0,5.4,5.3,10.7,5.3,1.8-.1,3.3-2,3.5-4.5h2.4c0,3.4-4.2,33.1-13,43.4a28.2,28.2,0,0,0,8.2-5.1,74.7,74.7,0,0,1-4.2,13.2,18.9,18.9,0,0,0,6.7-6.7C403,449,403.8,455.3,405.4,460.8Z"/><path d="M343.3,508.2a94.8,94.8,0,0,0,2.8-17.1,18.9,18.9,0,0,0,6.7,6.7,74.7,74.7,0,0,1-4.2-13.2,28.2,28.2,0,0,0,8.2,5.1c-9-10.5-13-40-13-43.4h2.4c.2,2.4,1.7,4.3,3.5,4.5,5.4,0,10.6-5.3,10.7-5.3-6.7,0-7.4-5.3-10.7-5.3-1.8.1-3.3,2-3.5,4.5h-2.4V440c1.8-.6,3.1-2.8,3-5.3,0-5-3.6-6.1-3.6-16.1,0,10-3.6,11.1-3.6,16.1-.1,2.5,1.1,4.7,3,5.3v4.6h-2.4c-.2-2.4-1.7-4.3-3.5-4.5-3.4,0-4,5.3-10.7,5.3.2,0,5.4,5.3,10.7,5.3,1.8-.1,3.3-2,3.5-4.5h2.4c0,3.4-4.2,33.1-13,43.4a28.2,28.2,0,0,0,8.2-5.1,74.7,74.7,0,0,1-4.2,13.2,18.9,18.9,0,0,0,6.7-6.7C341,496.3,341.7,502.6,343.3,508.2Z"/><path d="M467.4,508.2a94.8,94.8,0,0,0,2.8-17.1,18.9,18.9,0,0,0,6.7,6.7,74.7,74.7,0,0,1-4.2-13.2,28.2,28.2,0,0,0,8.2,5.1c-9-10.5-13-40-13-43.4h2.4c.2,2.4,1.7,4.3,3.5,4.5,5.4,0,10.6-5.3,10.7-5.3-6.7,0-7.4-5.3-10.7-5.3-1.8.1-3.3,2-3.5,4.5h-2.4V440c1.8-.6,3.1-2.8,3-5.3,0-5-3.6-6.1-3.6-16.1,0,10-3.6,11.1-3.6,16.1-.1,2.5,1.1,4.7,3,5.3v4.6h-2.4c-.2-2.4-1.7-4.3-3.5-4.5-3.4,0-4,5.3-10.7,5.3.2,0,5.4,5.3,10.7,5.3,1.8-.1,3.3-2,3.5-4.5h2.4c0,3.4-4.2,33.1-13,43.4a28.2,28.2,0,0,0,8.2-5.1,74.7,74.7,0,0,1-4.2,13.2,18.9,18.9,0,0,0,6.7-6.7C465,496.3,465.8,502.6,467.4,508.2Z"/><path d="M44.6,93.4a94.8,94.8,0,0,0,2.8-17.1,18.9,18.9,0,0,0,6.7,6.7A74.7,74.7,0,0,1,50,69.9,28.2,28.2,0,0,0,58.2,75c-8.9-10.3-13-40-13-43.4h2.4c.2,2.5,1.7,4.4,3.6,4.5,5.4,0,10.6-5.3,10.7-5.3-6.7,0-7.4-5.3-10.7-5.3-1.8.1-3.3,2-3.5,4.5H45.3V25.3c1.8-.6,3.1-2.8,3-5.3,0-5-3.6-6.1-3.6-16.1,0,10-3.6,11.1-3.6,16.1-.1,2.5,1.1,4.7,3,5.3v4.6H41.6c-.2-2.4-1.7-4.3-3.5-4.5-3.4,0-4,5.3-10.7,5.3.2,0,5.4,5.3,10.7,5.3,1.8-.1,3.3-2,3.5-4.5H44C44,35,39.8,64.6,31,75a28,28,0,0,0,8.2-5A74.7,74.7,0,0,1,35,83.2a18.9,18.9,0,0,0,6.7-6.7A103.5,103.5,0,0,0,44.6,93.4Z"/><path d="M168.7,93.4a94.8,94.8,0,0,0,2.8-17.1,18.9,18.9,0,0,0,6.7,6.7,74.7,74.7,0,0,1-4.2-13.2,28.3,28.3,0,0,0,8.3,5.2c-9-10.5-13-40-13-43.4h2.4c.2,2.4,1.7,4.3,3.5,4.5,5.4,0,10.6-5.3,10.7-5.3-6.7,0-7.4-5.3-10.7-5.3-1.8.1-3.3,2-3.5,4.5h-2.4V25.3c1.8-.6,3.1-2.8,3-5.3,0-5-3.6-6.1-3.6-16.1,0,10-3.6,11.1-3.6,16.1-.1,2.5,1.1,4.7,3,5.3v4.6h-2.4c-.2-2.4-1.7-4.3-3.5-4.5-3.4,0-4,5.3-10.7,5.3.2,0,5.4,5.3,10.7,5.3,1.8-.1,3.3-2,3.5-4.5h2.4c0,3.4-4.2,33.1-13,43.4a28.2,28.2,0,0,0,8.2-5.1,74.9,74.9,0,0,1-4.1,13.2,18.9,18.9,0,0,0,6.7-6.7A94.8,94.8,0,0,0,168.7,93.4Z"/><path d="M106.6,140.8a94.8,94.8,0,0,0,2.8-17.1,18.9,18.9,0,0,0,6.7,6.7,74.7,74.7,0,0,1-4.2-13.2,28.2,28.2,0,0,0,8.2,5.1c-8.9-10.3-13-40-13-43.4h2.4c.2,2.4,1.7,4.3,3.5,4.5,5.4,0,10.6-5.3,10.7-5.3-6.7,0-7.4-5.3-10.7-5.3-1.8.1-3.3,2-3.5,4.5h-2.4V72.6c1.8-.6,3.1-2.8,3-5.3,0-5-3.6-6.1-3.6-16.1,0,10-3.6,11.1-3.6,16.1-.1,2.5,1.1,4.7,3,5.3v4.6h-2.4c-.2-2.4-1.7-4.3-3.5-4.5-3.4,0-4,5.3-10.7,5.3.2,0,5.4,5.3,10.7,5.3,1.8-.1,3.3-2,3.5-4.5H106c0,3.4-4.2,33.1-13,43.4a28.2,28.2,0,0,0,8.2-5.1A74.7,74.7,0,0,1,97,130.5a18.9,18.9,0,0,0,6.7-6.7A122.7,122.7,0,0,0,106.6,140.8Z"/><path d="M44.6,188.2a94.8,94.8,0,0,0,2.8-17.1,18.9,18.9,0,0,0,6.7,6.7A74.7,74.7,0,0,1,50,164.6a28.2,28.2,0,0,0,8.2,5.1c-9-10.5-13-40-13-43.4h2.4c.2,2.4,1.7,4.3,3.5,4.5,5.4,0,10.6-5.3,10.7-5.3-6.7,0-7.4-5.3-10.7-5.3-1.8.1-3.3,2-3.5,4.5H45.2V120c1.8-.6,3.1-2.8,3-5.3,0-5-3.6-6.1-3.6-16.1,0,10-3.6,11.1-3.6,16.1-.1,2.5,1.1,4.7,3,5.3v4.6H41.6c-.2-2.4-1.7-4.3-3.5-4.5-3.4,0-4,5.3-10.7,5.3.2,0,5.4,5.3,10.7,5.3,1.8-.1,3.3-2,3.5-4.5H44c0,3.4-4.2,33.1-13,43.4a28,28,0,0,0,8.2-5A74.7,74.7,0,0,1,35,177.9a18.9,18.9,0,0,0,6.7-6.7A103.5,103.5,0,0,0,44.6,188.2Z"/><path d="M168.7,188.2a94.8,94.8,0,0,0,2.8-17.1,18.9,18.9,0,0,0,6.7,6.7,74.7,74.7,0,0,1-4.2-13.2,28.2,28.2,0,0,0,8.2,5.1c-9-10.5-13-40-13-43.4h2.4c.2,2.4,1.7,4.3,3.5,4.5,5.4,0,10.6-5.3,10.7-5.3-6.7,0-7.4-5.3-10.7-5.3-1.8.1-3.3,2-3.5,4.5h-2.4V120c1.8-.6,3.1-2.8,3-5.3,0-5-3.6-6.1-3.6-16.1,0,10-3.6,11.1-3.6,16.1-.1,2.5,1.1,4.7,3,5.3v4.6h-2.4c-.2-2.4-1.7-4.3-3.5-4.5-3.4,0-4,5.3-10.7,5.3.2,0,5.4,5.3,10.7,5.3,1.8-.1,3.3-2,3.5-4.5H168c0,3.4-4.2,33.1-13,43.4a28.2,28.2,0,0,0,8.2-5.1,74.7,74.7,0,0,1-4.2,13.2,18.9,18.9,0,0,0,6.7-6.7C166.4,176.3,167.1,182.6,168.7,188.2Z"/><path class="c" d="M213.4,0H256V512H213.4V320H0V192H213.4Z"/><path class="a" d="M230.4,0h51.2V217.6H512v76.8H281.6V512H230.4V294.4H0V217.6H230.4Z"/></svg>