<svg xmlns="http://www.w3.org/2000/svg" id="flag-icon-css-xi" viewBox="0 0 512 512"><defs><style>.a{fill:#002395;}.b{fill:#fff;}.c{fill:#ed2939;}</style></defs><title>xf</title><rect class="a" width="512" height="512"/><rect class="b" width="260.3" height="174.93"/><rect class="a" width="85.3" height="170.67"/><rect class="c" x="170.7" width="85.3" height="170.67"/><path class="b" d="M299.7,262.2l13.8,21.9h39v76.3l-29.3-45.9-39.5,62.9h19.2l20.3-36.3,41.6,74.7,41.6-74.7,20.3,36.3h19.2l-39.5-62.9L377,360.3V318.2h17.6l13.1-20.8H377V284.1h39l13.8-21.9Zm45.9,93.3H302.9v14.9h42.7Zm81.1,0H383.9v14.9h42.7Z"/><path class="b" d="M364.7,430.7l13.1,40.5-34.5-25.1H386l-34.5,25.1Z"/><path class="b" d="M316.7,394.5,329.9,435l-34.5-25.1h42.7L303.6,435Z"/><path class="b" d="M412.7,394.5,425.9,435l-34.5-25.1h42.7L399.6,435Z"/><path class="b" d="M276.2,286.7l13.1,40.5-34.5-25.1h42.7L263,327.2Z"/><path class="b" d="M453.3,286.7l13.1,40.5-34.5-25.1h42.7l-34.5,25.1Z"/></svg>