<svg xmlns="http://www.w3.org/2000/svg" id="flag-icon-css-an" viewBox="0 0 640 480">
    <defs>
        <style>.a{fill:#fff;}.b{fill:#dc171d;}.c{fill:#012a87;}</style>
    </defs>
    <title>an</title>
    <rect class="a" width="640" height="480"/>
    <rect class="b" x="248.9" width="142.2" height="480"/>
    <rect class="c" y="160" width="640" height="160"/>
    <polygon class="a" points="320 166.7 314.5 185.7 323 188.8 320 166.7"/>
    <polygon class="a" points="320 166.7 325.5 185.7 317 188.8 320 166.7"/>
    <polygon class="a" points="336.9 180.5 319.1 180.5 319.1 190.5 336.9 180.5"/>
    <polygon class="a" points="336.9 180.5 322.5 192.2 317.3 184.2 336.9 180.5"/>
    <polygon class="a" points="303.1 180.5 317.5 192.2 322.7 184.2 303.1 180.5"/>
    <polygon class="a" points="303.1 180.5 320.9 180.5 320.9 190.5 303.1 180.5"/>
    <polygon class="a" points="330.4 202.8 325 183.8 316.5 186.9 330.4 202.8"/>
    <polygon class="a" points="330.4 202.8 316.1 191.1 321.3 183 330.4 202.8"/>
    <polygon class="a" points="309.6 202.8 323.9 191.1 318.7 183 309.6 202.8"/>
    <polygon class="a" points="309.6 202.8 315 183.8 323.5 186.9 309.6 202.8"/>
    <polygon class="a" points="414.8 210.8 409.3 229.9 417.8 233 414.8 210.8"/>
    <polygon class="a" points="414.8 210.8 420.3 229.9 411.9 233 414.8 210.8"/>
    <polygon class="a" points="431.7 224.7 413.9 224.7 413.9 234.7 431.7 224.7"/>
    <polygon class="a" points="431.7 224.7 417.3 236.4 412.1 228.3 431.7 224.7"/>
    <polygon class="a" points="397.9 224.7 412.3 236.4 417.5 228.3 397.9 224.7"/>
    <polygon class="a" points="397.9 224.7 415.7 224.7 415.7 234.7 397.9 224.7"/>
    <polygon class="a" points="425.3 247 419.8 228 411.3 231.1 425.3 247"/>
    <polygon class="a" points="425.3 247 410.9 235.3 416.1 227.2 425.3 247"/>
    <polygon class="a" points="404.4 247 418.7 235.3 413.5 227.2 404.4 247"/>
    <polygon class="a" points="404.4 247 409.9 228 418.3 231.1 404.4 247"/>
    <polygon class="a" points="359.3 273.3 353.8 292.4 362.2 295.4 359.3 273.3"/>
    <polygon class="a" points="359.3 273.3 364.8 292.4 356.3 295.4 359.3 273.3"/>
    <polygon class="a" points="376.2 287.2 358.4 287.2 358.4 297.2 376.2 287.2"/>
    <polygon class="a" points="376.2 287.2 361.8 298.9 356.6 290.8 376.2 287.2"/>
    <polygon class="a" points="342.4 287.2 356.7 298.9 362 290.8 342.4 287.2"/>
    <polygon class="a" points="342.4 287.2 360.1 287.2 360.1 297.2 342.4 287.2"/>
    <polygon class="a" points="369.7 309.5 364.2 290.5 355.8 293.6 369.7 309.5"/>
    <polygon class="a" points="369.7 309.5 355.3 297.8 360.6 289.7 369.7 309.5"/>
    <polygon class="a" points="348.8 309.5 363.2 297.8 358 289.7 348.8 309.5"/>
    <polygon class="a" points="348.8 309.5 354.3 290.5 362.8 293.6 348.8 309.5"/>
    <polygon class="a" points="225.2 210.8 230.7 229.9 222.2 233 225.2 210.8"/>
    <polygon class="a" points="225.2 210.8 219.7 229.9 228.1 233 225.2 210.8"/>
    <polygon class="a" points="208.3 224.7 226.1 224.7 226.1 234.7 208.3 224.7"/>
    <polygon class="a" points="208.3 224.7 222.7 236.4 227.9 228.3 208.3 224.7"/>
    <polygon class="a" points="242.1 224.7 227.7 236.4 222.5 228.3 242.1 224.7"/>
    <polygon class="a" points="242.1 224.7 224.3 224.7 224.3 234.7 242.1 224.7"/>
    <polygon class="a" points="214.7 247 220.2 228 228.7 231.1 214.7 247"/>
    <polygon class="a" points="214.7 247 229.1 235.3 223.9 227.2 214.7 247"/>
    <polygon class="a" points="235.6 247 221.3 235.3 226.5 227.2 235.6 247"/>
    <polygon class="a" points="235.6 247 230.1 228 221.7 231.1 235.6 247"/>
    <polygon class="a" points="280.7 273.3 286.2 292.4 277.8 295.4 280.7 273.3"/>
    <polygon class="a" points="280.7 273.3 275.2 292.4 283.7 295.4 280.7 273.3"/>
    <polygon class="a" points="263.8 287.2 281.6 287.2 281.6 297.2 263.8 287.2"/>
    <polygon class="a" points="263.8 287.2 278.2 298.9 283.4 290.8 263.8 287.2"/>
    <polygon class="a" points="297.6 287.2 283.3 298.9 278 290.8 297.6 287.2"/>
    <polygon class="a" points="297.6 287.2 279.9 287.2 279.9 297.2 297.6 287.2"/>
    <polygon class="a" points="270.3 309.5 275.8 290.5 284.2 293.6 270.3 309.5"/>
    <polygon class="a" points="270.3 309.5 284.7 297.8 279.4 289.7 270.3 309.5"/>
    <polygon class="a" points="291.2 309.5 276.8 297.8 282 289.7 291.2 309.5"/>
    <polygon class="a" points="291.2 309.5 285.7 290.5 277.2 293.6 291.2 309.5"/>
</svg>