<svg xmlns="http://www.w3.org/2000/svg" viewBox="0 0 640 480"><title>aaa</title><rect width="640" height="480" fill="#fff"/><rect x="244.44" width="151.11" height="480" fill="#dc171d"/><rect y="160" width="640" height="160" fill="#012a87"/><polygon points="320 166.67 314.16 185.69 323.14 188.78 320 166.67" fill="#fff"/><polygon points="320 166.67 325.84 185.69 316.86 188.78 320 166.67" fill="#fff"/><polygon points="337.96 180.49 319.08 180.49 319.08 190.49 337.96 180.49" fill="#fff"/><polygon points="337.96 180.49 322.68 192.24 317.13 184.15 337.96 180.49" fill="#fff"/><polygon points="302.04 180.49 317.32 192.24 322.87 184.15 302.04 180.49" fill="#fff"/><polygon points="302.04 180.49 320.92 180.49 320.92 190.49 302.04 180.49" fill="#fff"/><polygon points="331.1 202.85 325.27 183.83 316.28 186.92 331.1 202.85" fill="#fff"/><polygon points="331.1 202.85 315.82 191.09 321.37 183 331.1 202.85" fill="#fff"/><polygon points="308.9 202.85 324.18 191.09 318.63 183 308.9 202.85" fill="#fff"/><polygon points="308.9 202.85 314.73 183.83 323.72 186.92 308.9 202.85" fill="#fff"/><polygon points="420.74 210.85 414.9 229.87 423.89 232.96 420.74 210.85" fill="#fff"/><polygon points="420.74 210.85 426.58 229.87 417.6 232.96 420.74 210.85" fill="#fff"/><polygon points="438.7 224.67 419.82 224.67 419.82 234.67 438.7 224.67" fill="#fff"/><polygon points="438.7 224.67 423.42 236.43 417.87 228.34 438.7 224.67" fill="#fff"/><polygon points="402.78 224.67 418.06 236.43 423.61 228.34 402.78 224.67" fill="#fff"/><polygon points="402.78 224.67 421.67 224.67 421.67 234.67 402.78 224.67" fill="#fff"/><polygon points="431.84 247.03 426.01 228.01 417.02 231.1 431.84 247.03" fill="#fff"/><polygon points="431.84 247.03 416.56 235.27 422.11 227.18 431.84 247.03" fill="#fff"/><polygon points="409.64 247.03 424.92 235.27 419.37 227.18 409.64 247.03" fill="#fff"/><polygon points="409.64 247.03 415.48 228.01 424.46 231.1 409.64 247.03" fill="#fff"/><polygon points="361.73 273.33 355.89 292.35 364.87 295.44 361.73 273.33" fill="#fff"/><polygon points="361.73 273.33 367.56 292.35 358.58 295.44 361.73 273.33" fill="#fff"/><polygon points="379.69 287.15 360.8 287.15 360.8 297.15 379.69 287.15" fill="#fff"/><polygon points="379.69 287.15 364.41 298.91 358.86 290.82 379.69 287.15" fill="#fff"/><polygon points="343.76 287.15 359.05 298.91 364.6 290.82 343.76 287.15" fill="#fff"/><polygon points="343.76 287.15 362.65 287.15 362.65 297.15 343.76 287.15" fill="#fff"/><polygon points="372.83 309.51 366.99 290.49 358.01 293.58 372.83 309.51" fill="#fff"/><polygon points="372.83 309.51 357.55 297.76 363.1 289.67 372.83 309.51" fill="#fff"/><polygon points="350.63 309.51 365.91 297.76 360.36 289.67 350.63 309.51" fill="#fff"/><polygon points="350.63 309.51 356.46 290.49 365.44 293.58 350.63 309.51" fill="#fff"/><polygon points="219.26 210.85 225.1 229.87 216.11 232.96 219.26 210.85" fill="#fff"/><polygon points="219.26 210.85 213.42 229.87 222.4 232.96 219.26 210.85" fill="#fff"/><polygon points="201.29 224.67 220.18 224.67 220.18 234.67 201.29 224.67" fill="#fff"/><polygon points="201.29 224.67 216.58 236.43 222.13 228.34 201.29 224.67" fill="#fff"/><polygon points="237.22 224.67 221.94 236.43 216.39 228.34 237.22 224.67" fill="#fff"/><polygon points="237.22 224.67 218.34 224.67 218.34 234.67 237.22 224.67" fill="#fff"/><polygon points="208.16 247.03 213.99 228.01 222.98 231.1 208.16 247.03" fill="#fff"/><polygon points="208.16 247.03 223.44 235.27 217.89 227.18 208.16 247.03" fill="#fff"/><polygon points="230.36 247.03 215.08 235.27 220.63 227.18 230.36 247.03" fill="#fff"/><polygon points="230.36 247.03 224.53 228.01 215.54 231.1 230.36 247.03" fill="#fff"/><polygon points="278.27 273.33 284.11 292.35 275.13 295.44 278.27 273.33" fill="#fff"/><polygon points="278.27 273.33 272.44 292.35 281.42 295.44 278.27 273.33" fill="#fff"/><polygon points="260.31 287.15 279.2 287.15 279.2 297.15 260.31 287.15" fill="#fff"/><polygon points="260.31 287.15 275.59 298.91 281.14 290.82 260.31 287.15" fill="#fff"/><polygon points="296.24 287.15 280.95 298.91 275.4 290.82 296.24 287.15" fill="#fff"/><polygon points="296.24 287.15 277.35 287.15 277.35 297.15 296.24 287.15" fill="#fff"/><polygon points="267.17 309.51 273.01 290.49 281.99 293.58 267.17 309.51" fill="#fff"/><polygon points="267.17 309.51 282.45 297.76 276.9 289.67 267.17 309.51" fill="#fff"/><polygon points="289.37 309.51 274.09 297.76 279.64 289.67 289.37 309.51" fill="#fff"/><polygon points="289.37 309.51 283.54 290.49 274.56 293.58 289.37 309.51" fill="#fff"/></svg>