<svg xmlns="http://www.w3.org/2000/svg" id="flag-icon-css-xа" viewBox="0 0 640 480">
    <rect width="640.07" height="480" style="fill:#fff"/>
    <rect width="291.63" height="480" style="fill:#061d60"/>
    <path d="M49.51,94.51c0,19.77,16.39,35.8,36.41,35.8a36,36,0,0,0,36.21-35.8V48.21H49.51v46.3Z"
          transform="translate(0.07)" style="fill:#d7110e;stroke:#fff;stroke-width:0.5570999979972839px"/>
    <path d="M66.32,92.45c0,11.67,8.79,21.12,19.54,21.12s19.43-9.46,19.43-21.12V65.13h-39V92.45Z"
          transform="translate(0.07)" style="fill:#fff;stroke:#010001;stroke-width:0.5570999979972839px"/>
    <path d="M61,56.19V51.11h2.12v5.09H61Z" transform="translate(0.07)"
          style="fill:#ffd02e;stroke:#010101;stroke-width:0.06319999694824219px"/>
    <path d="M56.79,56.19V51.11h2.12v5.09H56.79Z" transform="translate(0.07)"
          style="fill:#ffd02e;stroke:#010101;stroke-width:0.06319999694824219px"/>
    <path d="M52.54,56.19V51.11h2.12v5.09H52.54Z" transform="translate(0.07)"
          style="fill:#ffd02e;stroke:#010101;stroke-width:0.06319999694824219px"/>
    <path d="M59.42,51.73V50.55H56.29v1.18Z" transform="translate(0.07)"
          style="fill:#ffd02e;stroke:#010101;stroke-width:0.06319999694824219px"/>
    <path d="M63.16,62.06V53.43H52.54v8.63H63.16Z" transform="translate(0.07)"
          style="fill:#ffd02e;stroke:#010101;stroke-width:0.06319999694824219px"/>
    <path d="M63.69,56.47V55.31H52v1.15Z" transform="translate(0.07)"
          style="fill:#ffd02e;stroke:#010101;stroke-width:0.06319999694824219px"/>
    <path d="M63.69,63.21V62.06H52v1.15H63.69Z" transform="translate(0.07)"
          style="fill:#ffd02e;stroke:#010101;stroke-width:0.06319999694824219px"/>
    <path d="M55.13,62.06V60a2.72,2.72,0,0,1,5.44,0v2Z" transform="translate(0.07)"
          style="fill:#ffd02e;stroke:#010101;stroke-width:0.06319999694824219px"/>
    <path d="M56.22,62.06V60.49a1.67,1.67,0,1,1,3.27,0v1.57Z" transform="translate(0.07)"
          style="fill:#ffd02e;stroke:#010101;stroke-width:0.06319999694824219px"/>
    <path d="M63.63,51.73V50.55H60.5v1.18Z" transform="translate(0.07)"
          style="fill:#ffd02e;stroke:#010101;stroke-width:0.06319999694824219px"/>
    <path d="M52.07,51.73V50.55h3.14v1.18H52.07Z" transform="translate(0.07)"
          style="fill:#ffd02e;stroke:#010101;stroke-width:0.06319999694824219px"/>
    <path d="M61,88.68V83.59h2.12v5.09H61Z" transform="translate(0.07)"
          style="fill:#ffd02e;stroke:#010101;stroke-width:0.06319999694824219px"/>
    <path d="M56.79,88.68V83.59h2.12v5.09H56.79Z" transform="translate(0.07)"
          style="fill:#ffd02e;stroke:#010101;stroke-width:0.06319999694824219px"/>
    <path d="M52.54,88.68V83.59h2.12v5.09H52.54Z" transform="translate(0.07)"
          style="fill:#ffd02e;stroke:#010101;stroke-width:0.06319999694824219px"/>
    <path d="M59.42,84.22V83H56.29v1.18Z" transform="translate(0.07)"
          style="fill:#ffd02e;stroke:#010101;stroke-width:0.06319999694824219px"/>
    <path d="M63.16,94.54V85.91H52.54v8.63H63.16Z" transform="translate(0.07)"
          style="fill:#ffd02e;stroke:#010101;stroke-width:0.06319999694824219px"/>
    <path d="M63.69,89V87.8H52V89Z" transform="translate(0.07)"
          style="fill:#ffd02e;stroke:#010101;stroke-width:0.06319999694824219px"/>
    <path d="M63.69,95.7V94.55H52V95.7H63.69Z" transform="translate(0.07)"
          style="fill:#ffd02e;stroke:#010101;stroke-width:0.06319999694824219px"/>
    <path d="M55.13,94.54v-2a2.72,2.72,0,0,1,5.44,0v2Z" transform="translate(0.07)"
          style="fill:#ffd02e;stroke:#010101;stroke-width:0.06319999694824219px"/>
    <path d="M56.22,94.54V93a1.67,1.67,0,1,1,3.27,0v1.57Z" transform="translate(0.07)"
          style="fill:#ffd02e;stroke:#010101;stroke-width:0.06319999694824219px"/>
    <path d="M63.63,84.22V83H60.5v1.18Z" transform="translate(0.07)"
          style="fill:#ffd02e;stroke:#010101;stroke-width:0.06319999694824219px"/>
    <path d="M52.07,84.22V83h3.14v1.18H52.07Z" transform="translate(0.07)"
          style="fill:#ffd02e;stroke:#010101;stroke-width:0.06319999694824219px"/>
    <path d="M72.18,114.22l-4.29-2.81,1.17-1.75,4.29,2.81-1.17,1.75Z" transform="translate(0.07)"
          style="fill:#ffd02e;stroke:#010101;stroke-width:0.06319999694824219px"/>
    <path d="M69.84,117.72l-4.29-2.81,1.17-1.75L71,116l-1.17,1.75Z" transform="translate(0.07)"
          style="fill:#ffd02e;stroke:#010101;stroke-width:0.06319999694824219px"/>
    <path d="M67.49,121.22l-4.29-2.81,1.17-1.75,4.29,2.81-1.17,1.75Z" transform="translate(0.07)"
          style="fill:#ffd02e;stroke:#010101;stroke-width:0.06319999694824219px"/>
    <path d="M67.52,113.09l-1-.65L64.8,115l1,.65Z" transform="translate(0.07)"
          style="fill:#ffd02e;stroke:#010101;stroke-width:0.06319999694824219px"/>
    <path d="M78.31,115.71,71,110.95l-5.86,8.74,7.29,4.77,5.86-8.74Z" transform="translate(0.07)"
          style="fill:#ffd02e;stroke:#010101;stroke-width:0.06319999694824219px"/>
    <path d="M73.88,112.19l-1-.64-6.45,9.62,1,.64Z" transform="translate(0.07)"
          style="fill:#ffd02e;stroke:#010101;stroke-width:0.06319999694824219px"/>
    <path d="M79.58,115.92l-1-.64-6.45,9.62,1,.64,6.45-9.62Z" transform="translate(0.07)"
          style="fill:#ffd02e;stroke:#010101;stroke-width:0.06319999694824219px"/>
    <path d="M73.87,122.32l-1.72-1.12a2.62,2.62,0,0,1-.69-3.67,2.7,2.7,0,0,1,3.69-.81l1.72,1.12Z"
          transform="translate(0.07)" style="fill:#ffd02e;stroke:#010101;stroke-width:0.06319999694824219px"/>
    <path d="M74.47,121.43l-1.32-.87a1.83,1.83,0,0,1-.79-2.45,1.88,1.88,0,0,1,2.59-.24l1.32.87Z"
          transform="translate(0.07)" style="fill:#ffd02e;stroke:#010101;stroke-width:0.06319999694824219px"/>
    <path d="M69.85,109.62l-1-.65-1.73,2.58,1,.65Z" transform="translate(0.07)"
          style="fill:#ffd02e;stroke:#010101;stroke-width:0.06319999694824219px"/>
    <path d="M63.46,119.14l-1-.65,1.73-2.58,1,.65-1.73,2.58Z" transform="translate(0.07)"
          style="fill:#ffd02e;stroke:#010101;stroke-width:0.06319999694824219px"/>
    <path d="M89,56.19V51.11h2.12v5.09H89Z" transform="translate(0.07)"
          style="fill:#ffd02e;stroke:#010101;stroke-width:0.06319999694824219px"/>
    <path d="M84.78,56.19V51.11H86.9v5.09H84.78Z" transform="translate(0.07)"
          style="fill:#ffd02e;stroke:#010101;stroke-width:0.06319999694824219px"/>
    <path d="M80.53,56.19V51.11h2.12v5.09H80.53Z" transform="translate(0.07)"
          style="fill:#ffd02e;stroke:#010101;stroke-width:0.06319999694824219px"/>
    <path d="M87.41,51.73V50.55H84.27v1.18Z" transform="translate(0.07)"
          style="fill:#ffd02e;stroke:#010101;stroke-width:0.06319999694824219px"/>
    <path d="M91.15,62.06V53.43H80.53v8.63H91.15Z" transform="translate(0.07)"
          style="fill:#ffd02e;stroke:#010101;stroke-width:0.06319999694824219px"/>
    <path d="M91.68,56.47V55.31H80v1.15Z" transform="translate(0.07)"
          style="fill:#ffd02e;stroke:#010101;stroke-width:0.06319999694824219px"/>
    <path d="M91.68,63.21V62.06H80v1.15H91.68Z" transform="translate(0.07)"
          style="fill:#ffd02e;stroke:#010101;stroke-width:0.06319999694824219px"/>
    <path d="M83.12,62.06V60a2.72,2.72,0,0,1,5.44,0v2Z" transform="translate(0.07)"
          style="fill:#ffd02e;stroke:#010101;stroke-width:0.06319999694824219px"/>
    <path d="M84.21,62.06V60.49a1.67,1.67,0,1,1,3.27,0v1.57Z" transform="translate(0.07)"
          style="fill:#ffd02e;stroke:#010101;stroke-width:0.06319999694824219px"/>
    <path d="M91.62,51.73V50.55H88.48v1.18Z" transform="translate(0.07)"
          style="fill:#ffd02e;stroke:#010101;stroke-width:0.06319999694824219px"/>
    <path d="M80.06,51.73V50.55h3.14v1.18H80.06Z" transform="translate(0.07)"
          style="fill:#ffd02e;stroke:#010101;stroke-width:0.06319999694824219px"/>
    <path d="M110.64,56.19V51.11h-2.12v5.09h2.12Z" transform="translate(0.07)"
          style="fill:#ffd02e;stroke:#010101;stroke-width:0.06319999694824219px"/>
    <path d="M114.88,56.19V51.11h-2.12v5.09h2.12Z" transform="translate(0.07)"
          style="fill:#ffd02e;stroke:#010101;stroke-width:0.06319999694824219px"/>
    <path d="M119.13,56.19V51.11H117v5.09h2.12Z" transform="translate(0.07)"
          style="fill:#ffd02e;stroke:#010101;stroke-width:0.06319999694824219px"/>
    <path d="M112.25,51.73V50.55h3.14v1.18Z" transform="translate(0.07)"
          style="fill:#ffd02e;stroke:#010101;stroke-width:0.06319999694824219px"/>
    <path d="M108.51,62.06V53.43h10.62v8.63H108.51Z" transform="translate(0.07)"
          style="fill:#ffd02e;stroke:#010101;stroke-width:0.06319999694824219px"/>
    <path d="M108,56.47V55.31h11.68v1.15Z" transform="translate(0.07)"
          style="fill:#ffd02e;stroke:#010101;stroke-width:0.06319999694824219px"/>
    <path d="M108,63.21V62.06h11.68v1.15H108Z" transform="translate(0.07)"
          style="fill:#ffd02e;stroke:#010101;stroke-width:0.06319999694824219px"/>
    <path d="M116.54,62.06V60a2.72,2.72,0,0,0-5.44,0v2Z" transform="translate(0.07)"
          style="fill:#ffd02e;stroke:#010101;stroke-width:0.06319999694824219px"/>
    <path d="M115.45,62.06V60.49a1.67,1.67,0,1,0-3.27,0v1.57Z" transform="translate(0.07)"
          style="fill:#ffd02e;stroke:#010101;stroke-width:0.06319999694824219px"/>
    <path d="M108,51.73V50.55h3.14v1.18Z" transform="translate(0.07)"
          style="fill:#ffd02e;stroke:#010101;stroke-width:0.06319999694824219px"/>
    <path d="M119.6,51.73V50.55h-3.14v1.18h3.14Z" transform="translate(0.07)"
          style="fill:#ffd02e;stroke:#010101;stroke-width:0.06319999694824219px"/>
    <path d="M110.64,88.68V83.59h-2.12v5.09h2.12Z" transform="translate(0.07)"
          style="fill:#ffd02e;stroke:#010101;stroke-width:0.06319999694824219px"/>
    <path d="M114.88,88.68V83.59h-2.12v5.09h2.12Z" transform="translate(0.07)"
          style="fill:#ffd02e;stroke:#010101;stroke-width:0.06319999694824219px"/>
    <path d="M119.13,88.68V83.59H117v5.09h2.12Z" transform="translate(0.07)"
          style="fill:#ffd02e;stroke:#010101;stroke-width:0.06319999694824219px"/>
    <path d="M112.25,84.22V83h3.14v1.18Z" transform="translate(0.07)"
          style="fill:#ffd02e;stroke:#010101;stroke-width:0.06319999694824219px"/>
    <path d="M108.51,94.54V85.91h10.62v8.63H108.51Z" transform="translate(0.07)"
          style="fill:#ffd02e;stroke:#010101;stroke-width:0.06319999694824219px"/>
    <path d="M108,89V87.8h11.68V89Z" transform="translate(0.07)"
          style="fill:#ffd02e;stroke:#010101;stroke-width:0.06319999694824219px"/>
    <path d="M108,95.7V94.55h11.68V95.7H108Z" transform="translate(0.07)"
          style="fill:#ffd02e;stroke:#010101;stroke-width:0.06319999694824219px"/>
    <path d="M116.54,94.54v-2a2.72,2.72,0,0,0-5.44,0v2Z" transform="translate(0.07)"
          style="fill:#ffd02e;stroke:#010101;stroke-width:0.06319999694824219px"/>
    <path d="M115.45,94.54V93a1.67,1.67,0,1,0-3.27,0v1.57Z" transform="translate(0.07)"
          style="fill:#ffd02e;stroke:#010101;stroke-width:0.06319999694824219px"/>
    <path d="M108,84.22V83h3.14v1.18Z" transform="translate(0.07)"
          style="fill:#ffd02e;stroke:#010101;stroke-width:0.06319999694824219px"/>
    <path d="M119.6,84.22V83h-3.14v1.18h3.14Z" transform="translate(0.07)"
          style="fill:#ffd02e;stroke:#010101;stroke-width:0.06319999694824219px"/>
    <path d="M99.49,114.22l4.29-2.81-1.17-1.75-4.29,2.81,1.17,1.75Z" transform="translate(0.07)"
          style="fill:#ffd02e;stroke:#010101;stroke-width:0.06319999694824219px"/>
    <path d="M101.84,117.72l4.29-2.81L105,113.16,100.66,116l1.17,1.75Z" transform="translate(0.07)"
          style="fill:#ffd02e;stroke:#010101;stroke-width:0.06319999694824219px"/>
    <path d="M104.18,121.22l4.29-2.81-1.17-1.75L103,119.47l1.17,1.75Z" transform="translate(0.07)"
          style="fill:#ffd02e;stroke:#010101;stroke-width:0.06319999694824219px"/>
    <path d="M104.15,113.09l1-.65,1.73,2.58-1,.65Z" transform="translate(0.07)"
          style="fill:#ffd02e;stroke:#010101;stroke-width:0.06319999694824219px"/>
    <path d="M93.37,115.71l7.29-4.77,5.86,8.74-7.29,4.77-5.86-8.74Z" transform="translate(0.07)"
          style="fill:#ffd02e;stroke:#010101;stroke-width:0.06319999694824219px"/>
    <path d="M97.8,112.19l1-.64,6.45,9.62-1,.64Z" transform="translate(0.07)"
          style="fill:#ffd02e;stroke:#010101;stroke-width:0.06319999694824219px"/>
    <path d="M92.1,115.92l1-.64,6.45,9.62-1,.64-6.45-9.62Z" transform="translate(0.07)"
          style="fill:#ffd02e;stroke:#010101;stroke-width:0.06319999694824219px"/>
    <path d="M97.8,122.32l1.72-1.12a2.62,2.62,0,0,0,.69-3.67,2.7,2.7,0,0,0-3.69-.81l-1.72,1.12Z"
          transform="translate(0.07)" style="fill:#ffd02e;stroke:#010101;stroke-width:0.06319999694824219px"/>
    <path d="M97.2,121.43l1.32-.87a1.83,1.83,0,0,0,.79-2.45,1.88,1.88,0,0,0-2.59-.24l-1.32.87Z"
          transform="translate(0.07)" style="fill:#ffd02e;stroke:#010101;stroke-width:0.06319999694824219px"/>
    <path d="M101.82,109.62l1-.65,1.73,2.58-1,.65Z" transform="translate(0.07)"
          style="fill:#ffd02e;stroke:#010101;stroke-width:0.06319999694824219px"/>
    <path d="M108.21,119.14l1-.65-1.73-2.58-1,.65,1.73,2.58Z" transform="translate(0.07)"
          style="fill:#ffd02e;stroke:#010101;stroke-width:0.06319999694824219px"/>
    <path d="M81.1,89.84a4.71,4.71,0,1,0,9.41,0V83.44H81.1v6.41Z" transform="translate(0.07)" style="fill:#004b8f"/>
    <ellipse cx="85.88" cy="88.31" rx="0.88" ry="0.87" style="fill:#fff"/>
    <ellipse cx="83.64" cy="85.43" rx="0.88" ry="0.87" style="fill:#fff"/>
    <ellipse cx="88.11" cy="85.43" rx="0.88" ry="0.87" style="fill:#fff"/>
    <ellipse cx="83.64" cy="91.18" rx="0.88" ry="0.87" style="fill:#fff"/>
    <ellipse cx="88.11" cy="91.18" rx="0.88" ry="0.87" style="fill:#fff"/>
    <path d="M81.1,75a4.71,4.71,0,1,0,9.41,0V68.58H81.1V75Z" transform="translate(0.07)" style="fill:#004b8f"/>
    <ellipse cx="85.88" cy="73.44" rx="0.88" ry="0.87" style="fill:#fff"/>
    <ellipse cx="83.64" cy="70.57" rx="0.88" ry="0.87" style="fill:#fff"/>
    <ellipse cx="88.11" cy="70.57" rx="0.88" ry="0.87" style="fill:#fff"/>
    <ellipse cx="83.64" cy="76.32" rx="0.88" ry="0.87" style="fill:#fff"/>
    <ellipse cx="88.11" cy="76.32" rx="0.88" ry="0.87" style="fill:#fff"/>
    <path d="M68.93,89.84a4.71,4.71,0,1,0,9.41,0V83.44H68.93v6.41Z" transform="translate(0.07)" style="fill:#004b8f"/>
    <ellipse cx="73.71" cy="88.31" rx="0.88" ry="0.87" style="fill:#fff"/>
    <ellipse cx="71.47" cy="85.43" rx="0.88" ry="0.87" style="fill:#fff"/>
    <ellipse cx="75.94" cy="85.43" rx="0.88" ry="0.87" style="fill:#fff"/>
    <ellipse cx="71.47" cy="91.18" rx="0.88" ry="0.87" style="fill:#fff"/>
    <ellipse cx="75.94" cy="91.18" rx="0.88" ry="0.87" style="fill:#fff"/>
    <path d="M81.1,104.71a4.71,4.71,0,1,0,9.41,0V98.3H81.1v6.41Z" transform="translate(0.07)" style="fill:#004b8f"/>
    <ellipse cx="85.88" cy="103.17" rx="0.88" ry="0.87" style="fill:#fff"/>
    <ellipse cx="83.64" cy="100.3" rx="0.88" ry="0.87" style="fill:#fff"/>
    <ellipse cx="88.11" cy="100.3" rx="0.88" ry="0.87" style="fill:#fff"/>
    <ellipse cx="83.64" cy="106.05" rx="0.88" ry="0.87" style="fill:#fff"/>
    <ellipse cx="88.11" cy="106.05" rx="0.88" ry="0.87" style="fill:#fff"/>
    <path d="M93.27,89.84a4.71,4.71,0,1,0,9.41,0V83.44H93.27v6.41Z" transform="translate(0.07)" style="fill:#004b8f"/>
    <ellipse cx="98.05" cy="88.31" rx="0.88" ry="0.87" style="fill:#fff"/>
    <ellipse cx="95.81" cy="85.43" rx="0.88" ry="0.87" style="fill:#fff"/>
    <ellipse cx="100.28" cy="85.43" rx="0.88" ry="0.87" style="fill:#fff"/>
    <ellipse cx="95.81" cy="91.18" rx="0.88" ry="0.87" style="fill:#fff"/>
    <ellipse cx="100.28" cy="91.18" rx="0.88" ry="0.87" style="fill:#fff"/>
    <path d="M291.57,107.19l8.33,25.33-21.83-15.67,27,0-21.83,15.63Z" transform="translate(0.07)"
          style="fill:#ffd02e;stroke:#ffd02e;stroke-width:0.451200008392334px"/>
    <path d="M136.57,186.86l25.79,7.79-25.52,8.68,15.52-21.83.44,26.63Z" transform="translate(0.07)"
          style="fill:#ffd02e;stroke:#ffd02e;stroke-width:0.451200008392334px"/>
    <path d="M166.81,153.55,190,167.17l-26.87,2.44L183.44,152l-6,26Z" transform="translate(0.07)"
          style="fill:#ffd02e;stroke:#ffd02e;stroke-width:0.451200008392334px"/>
    <path d="M204.2,128.29,223.43,147,196.74,143l24-12.28-12.06,23.82Z" transform="translate(0.07)"
          style="fill:#ffd02e;stroke:#ffd02e;stroke-width:0.451200008392334px"/>
    <path d="M246.6,112.54l14.18,22.65-25-10.09,26.25-6.3L244.61,139.1Z" transform="translate(0.07)"
          style="fill:#ffd02e;stroke:#ffd02e;stroke-width:0.451200008392334px"/>
    <path d="M336.54,112.54l2,26.56L321.1,118.76l26.23,6.38-25,10.06Z" transform="translate(0.07)"
          style="fill:#ffd02e;stroke:#ffd02e;stroke-width:0.451200008392334px"/>
    <path d="M378.94,128.31l-4.46,26.27-12-23.85,23.94,12.35L359.71,147Z" transform="translate(0.07)"
          style="fill:#ffd02e;stroke:#ffd02e;stroke-width:0.451200008392334px"/>
    <path d="M416.33,153.57,405.67,178l-6-26L420,169.66l-26.85-2.47Z" transform="translate(0.07)"
          style="fill:#ffd02e;stroke:#ffd02e;stroke-width:0.451200008392334px"/>
    <path d="M446.56,186.88l-16.24,21.27.47-26.65,15.46,21.87-25.49-8.7Z" transform="translate(0.07)"
          style="fill:#ffd02e;stroke:#ffd02e;stroke-width:0.451200008392334px"/>
    <path d="M280.46,253.82c5.42-14,16.74-15,23.27-22.77,2.56-3,8.81-1.74,13.2-2.67,4.18-.89,5.58.89,6,4.86,7.79-.32,7.62,3,6.88,6.23-.33-1.29-3.85-1.5-5.57-1.34,0,2.83-2,3-5.25,3.77-2.47.62-2.9,4.42-3,7.16,6.89.16,13-5.87,19.19-12.51s16.47-12.43,33.12-11.49c20.16,1.13,60.17,1.78,73.61-2.11s16.39,1.62,6.56,7.77c1.14,2.43-1.52,6.77-6.23,8.58,2.3,2.75-1.31,6.48-8.36,9.23.33,4.37-6.72,9.39-15.74,10.2,2.29,5.5-11.31,10.36-26.07,9.39,1.48,2.11-3.44,5.83-9,5.83,2,2.27-3.11,4.86-6.72,5,2.13,1.94-8.36,5-13.94,3.88.16,1.94-6.07,3.4-10.16,2.43-.49,1.78-4.92,2.43-7.54.65-.66,1.78-3.77,2.11-6.56.32a4.63,4.63,0,0,1-6.72-.49c-1.15,1.94-3.93,2.59-5.9.16-1.64,2.11-3.93,1.46-5.74-.65-.33,1.94-6.12,5.18-9.4-6.48A30.35,30.35,0,0,1,306.69,290c1.09,3.33,1.74,10.73,1.48,17.32,1,6.48,3.93,15.86,5.81,21.86s-1.06,5.38-2.78,4.41a7,7,0,0,1,0,3.12,5.74,5.74,0,0,0-3.81-2.17,4.1,4.1,0,0,1-1.19,2.66c-1.56-1.94-3.11-4.29-4.92-4.29-1.8.41-5.25,2.11-6.23,4.94a5.63,5.63,0,0,1-.56-2.45c-1.31,1.05-5.28,1.21-6.18-.08a7.83,7.83,0,0,1-.31,2,5.62,5.62,0,0,0-3.79-2.43,4,4,0,0,1-1.23,2.69c-1.47-2-3.27-3.79-5.07-3.88-1.82.33-5.34,1.87-6.45,4.65a5.92,5.92,0,0,1,.11-5c-1-.09-2.13-.72-1.77-2-3.12,5.34-7.21,4.21-8.85,1.62-3.28,3.56-10,1.44-7-3.07,11.8-18.13,13.28-24,16.56-33.51,1.28-3.8.49-9.71,2.3-15.38-4.1,7.12-9.18,8.26-10.33,6.64-1.31,1.62-5.74,3.24-6.89.65-1.31,1-4.26,1-5.41-.32-2.13,1.62-5.25,1.78-5.74.32-2.13,1.3-6.56,1.13-7.38-.32-3.28,2.75-10.49,1.3-10.17-2.75-7.66,3.54-14.59,1.62-14.26-2.1-4.59.49-7.21-1.78-6.89-3.89-4.92.32-7.87-2.75-7-6-10.49,1-36.56-2.11-34.75-10.2-7.38-1.29-18.36-6.64-14.75-10.85-4.75-1.3-10.17-5.18-9.67-8.9-6.72-1.46-8-7-5.9-8.1-6.39-2.11-7.37-10.07,3.77-7.29,15.57,3.89,57.38,3.24,80,1.94s22.46,4.69,42.3,18.46c9,6.22,16.51,4.77,20.83,5.61Z"
          transform="translate(0.07)" style="fill:#ffd02e;stroke:#010101;stroke-width:0.451200008392334px"/>
    <path d="M305.95,331.1a4.52,4.52,0,0,1,1.44,3.41" transform="translate(0.07)"
          style="fill:none;stroke:#010101;stroke-width:0.451200008392334px"/>
    <path d="M311.2,333.57c-.65-2.43-3-2.89-5.25-2.47-1.56-.41-2.87-1.46-2.87-4.21,0-1.78,1.07-4.46,3.28-9.07,1.09-2.26,1.64-6.22,1.81-10.52"
          transform="translate(0.07)" style="fill:none;stroke:#010101;stroke-width:0.451200008392334px"/>
    <path d="M294.49,335.37c0-2,1.07-4.06,4.16-4.67,1.64-.32,2.29-.73,2.29-3.07,0-7.53-9.51-9-9.51-27.6"
          transform="translate(0.07)" style="fill:none;stroke:#010101;stroke-width:0.451200008392334px"/>
    <path d="M301.46,297c1.12-2.77,3.78-4.48,5.22-7" transform="translate(0.07)"
          style="fill:none;stroke:#010101;stroke-width:0.451200008392334px"/>
    <path d="M280.46,253.82a4.12,4.12,0,0,1,3.27,2.16" transform="translate(0.07)"
          style="fill:none;stroke:#010101;stroke-width:0.451200008392334px"/>
    <path d="M282.85,331.11a5,5,0,0,1,1.36,3.7" transform="translate(0.07)"
          style="fill:none;stroke:#010101;stroke-width:0.451200008392334px"/>
    <path d="M288.3,335.28c0-3.32-2.72-4.57-5.46-4.17-1.54-.47-2.47-.74-2.34-3.49.52-11.23,10.39-14.77,8.15-35.22"
          transform="translate(0.07)" style="fill:none;stroke:#010101;stroke-width:0.451200008392334px"/>
    <path d="M271.57,333.26a4.55,4.55,0,0,1,3.49-2.17c1.65-.25,2.32-.64,2.43-3,.1-2.12-1.33-3.09-2.12-4.29-3.78-5.77-6.88-21.7-4.92-27.52"
          transform="translate(0.07)" style="fill:none;stroke:#010101;stroke-width:0.451200008392334px"/>
    <path d="M316,249.06c0,.81,0,1.63,0,2.39,0,7.94-5.17,11.33-5.08,18a59.22,59.22,0,0,1-.54,9.39"
          transform="translate(0.07)" style="fill:none;stroke:#010101;stroke-width:0.451200008392334px"/>
    <path d="M282.26,258.89c-16.39-.65-30.17-4.53-38-15.54s-21.31-11.33-34.43-10a213,213,0,0,1-38,0"
          transform="translate(0.07)" style="fill:none;stroke:#010101;stroke-width:0.451200008392334px"/>
    <path d="M189.67,234.16c-1,2.75,2.25,7.89,26.84,5.3" transform="translate(0.07)"
          style="fill:none;stroke:#010101;stroke-width:0.451200008392334px"/>
    <path d="M191.93,238.17c.66,5.5,13.28,9.39,29.51,6" transform="translate(0.07)"
          style="fill:none;stroke:#010101;stroke-width:0.451200008392334px"/>
    <path d="M200,244.24c-4.92.16-1.64,5.26,4.1,5.91s15.9.81,21.47-.65" transform="translate(0.07)"
          style="fill:none;stroke:#010101;stroke-width:0.451200008392334px"/>
    <path d="M204.06,250.15c-3.28,2.59-1.61,6.22,8.85,7a60.94,60.94,0,0,0,18.69-1.94" transform="translate(0.07)"
          style="fill:none;stroke:#010101;stroke-width:0.451200008392334px"/>
    <path d="M214.1,257.19c-3,1.94.29,5.42,5.86,5.42s11.8-1,16.06-3.08" transform="translate(0.07)"
          style="fill:none;stroke:#010101;stroke-width:0.451200008392334px"/>
    <path d="M220,262.62c-2.29,3.08,1.41,6.39,8.69,4.7,2.79-.65,9.34-3.24,11.31-4.86" transform="translate(0.07)"
          style="fill:none;stroke:#010101;stroke-width:0.451200008392334px"/>
    <path d="M229.31,267.15c-3.12,1.94-1.07,6.48,4.92,3.72a30,30,0,0,0,8-5.34" transform="translate(0.07)"
          style="fill:none;stroke:#010101;stroke-width:0.451200008392334px"/>
    <path d="M234.23,270.87c-.82,2.43,1.8,4.37,5.58,2.11a20.28,20.28,0,0,0,6.88-6.48" transform="translate(0.07)"
          style="fill:none;stroke:#010101;stroke-width:0.451200008392334px"/>
    <path d="M239.8,273c-.49,2.1,2,5.51,10.49-4" transform="translate(0.07)"
          style="fill:none;stroke:#010101;stroke-width:0.451200008392334px"/>
    <path d="M243.9,274.6c-.66,2.59,3.28,4.21,9.51-3.73" transform="translate(0.07)"
          style="fill:none;stroke:#010101;stroke-width:0.451200008392334px"/>
    <path d="M248.32,275.89c1.64,2.59,4.1,2.43,9.84-3.72" transform="translate(0.07)"
          style="fill:none;stroke:#010101;stroke-width:0.451200008392334px"/>
    <path d="M252.42,277c-.33,2.43,3.77,3.07,8.36-1.94" transform="translate(0.07)"
          style="fill:none;stroke:#010101;stroke-width:0.451200008392334px"/>
    <path d="M257.55,277.84c-.33,2.43,4.71,1.3,8.15-2.91" transform="translate(0.07)"
          style="fill:none;stroke:#010101;stroke-width:0.451200008392334px"/>
    <path d="M262.09,278c1.31,1.94,5.58,2.1,8.36-2.59" transform="translate(0.07)"
          style="fill:none;stroke:#010101;stroke-width:0.451200008392334px"/>
    <path d="M269.64,276.54c-2.62,3.4,1.64,4.7,4.92,1.3" transform="translate(0.07)"
          style="fill:none;stroke:#010101;stroke-width:0.451200008392334px"/>
    <path d="M272.75,280.91c5.74-4.37,3.12-13.76,7.38-13.76" transform="translate(0.07)"
          style="fill:none;stroke:#010101;stroke-width:0.451200008392334px"/>
    <path d="M133.57,235.09c10.66,3.88,39.51,6.31,58.85,4.7" transform="translate(0.07)"
          style="fill:none;stroke:#010101;stroke-width:0.451200008392334px"/>
    <path d="M139.47,243.19c12.13,3.4,40.9,4.41,58.61,3.93" transform="translate(0.07)"
          style="fill:none;stroke:#010101;stroke-width:0.451200008392334px"/>
    <path d="M149.14,252.09c8.53,1.94,37.05,6.15,55.41,3.08" transform="translate(0.07)"
          style="fill:none;stroke:#010101;stroke-width:0.451200008392334px"/>
    <path d="M163.89,262.94c7.21,1.78,36.23,4.09,51.81-1.09" transform="translate(0.07)"
          style="fill:none;stroke:#010101;stroke-width:0.451200008392334px"/>
    <path d="M198.65,273.14c4.59-.16,15.94-2.87,22-6.43" transform="translate(0.07)"
          style="fill:none;stroke:#010101;stroke-width:0.451200008392334px"/>
    <path d="M205.7,279.13c6.72-1,16.36-3.8,22.42-8.66" transform="translate(0.07)"
          style="fill:none;stroke:#010101;stroke-width:0.451200008392334px"/>
    <path d="M212.59,283c4.75-.16,17.21-5.26,22.62-9.31" transform="translate(0.07)"
          style="fill:none;stroke:#010101;stroke-width:0.451200008392334px"/>
    <path d="M226.85,285.12a60.62,60.62,0,0,0,15.25-9.79" transform="translate(0.07)"
          style="fill:none;stroke:#010101;stroke-width:0.451200008392334px"/>
    <path d="M237,287.87c4.43-3.08,8.2-7.61,11.64-11.49" transform="translate(0.07)"
          style="fill:none;stroke:#010101;stroke-width:0.451200008392334px"/>
    <path d="M244.39,288.2c3.44-1.94,6-5.71,8.81-9.59" transform="translate(0.07)"
          style="fill:none;stroke:#010101;stroke-width:0.451200008392334px"/>
    <path d="M250.13,287.87a35.72,35.72,0,0,0,8.2-8.86" transform="translate(0.07)"
          style="fill:none;stroke:#010101;stroke-width:0.451200008392334px"/>
    <path d="M255.54,288.2a29,29,0,0,0,7.38-9.39" transform="translate(0.07)"
          style="fill:none;stroke:#010101;stroke-width:0.451200008392334px"/>
    <path d="M262.42,287.55a24,24,0,0,0,6.44-8.94" transform="translate(0.07)"
          style="fill:none;stroke:#010101;stroke-width:0.451200008392334px"/>
    <path d="M260.95,332.88a198.5,198.5,0,0,0,10.49-19.43" transform="translate(0.07)"
          style="fill:none;stroke:#010101;stroke-width:0.451200008392334px"/>
    <path d="M269.8,331.26c2-2.91,3.32-6.36,4.8-8.94" transform="translate(0.07)"
          style="fill:none;stroke:#010101;stroke-width:0.451200008392334px"/>
    <path d="M287,331.1c-.08-3.48-.74-14.57-.49-20" transform="translate(0.07)"
          style="fill:none;stroke:#010101;stroke-width:0.451200008392334px"/>
    <path d="M295,332.15c.08-4.13-1.72-13.28-1.64-19.91" transform="translate(0.07)"
          style="fill:none;stroke:#010101;stroke-width:0.451200008392334px"/>
    <path d="M308.08,331c-.49-2-2-8.66-2.38-11.66" transform="translate(0.07)"
          style="fill:none;stroke:#010101;stroke-width:0.451200008392334px"/>
    <path d="M316,256c17-.33,21.64-27.2,49.51-26.55s44.92,2.59,58,1.3" transform="translate(0.07)"
          style="fill:none;stroke:#010101;stroke-width:0.451200008392334px"/>
    <path d="M370.95,235.9c17.38,1.3,24.59-1.3,24.43-5.34" transform="translate(0.07)"
          style="fill:none;stroke:#010101;stroke-width:0.451200008392334px"/>
    <path d="M367.84,241.08c11,1.46,21.92,2.43,21.52-5.67" transform="translate(0.07)"
          style="fill:none;stroke:#010101;stroke-width:0.451200008392334px"/>
    <path d="M362.92,246.43c8.85,1.78,22.3,4,22-5" transform="translate(0.07)"
          style="fill:none;stroke:#010101;stroke-width:0.451200008392334px"/>
    <path d="M356.36,251.61c12.62,3.56,24.76,4.85,23.93-4" transform="translate(0.07)"
          style="fill:none;stroke:#010101;stroke-width:0.451200008392334px"/>
    <path d="M351.44,257.44c11,4.21,23,4.65,21.64-3.12" transform="translate(0.07)"
          style="fill:none;stroke:#010101;stroke-width:0.451200008392334px"/>
    <path d="M346.19,260.83c9.84,6.31,18.16,5.46,18.16-.36" transform="translate(0.07)"
          style="fill:none;stroke:#010101;stroke-width:0.451200008392334px"/>
    <path d="M341.6,263.91c8.52,6,14.59,6.48,15.41,1.13" transform="translate(0.07)"
          style="fill:none;stroke:#010101;stroke-width:0.451200008392334px"/>
    <path d="M338.65,266c5.58,6.15,10.49,6,11.64,2.43" transform="translate(0.07)"
          style="fill:none;stroke:#010101;stroke-width:0.451200008392334px"/>
    <path d="M334.72,266.5c3.61,5.67,9.34,7.77,9.84,4" transform="translate(0.07)"
          style="fill:none;stroke:#010101;stroke-width:0.451200008392334px"/>
    <path d="M331.69,268c3.61,5.67,8.85,7.93,9.34,4.21" transform="translate(0.07)"
          style="fill:none;stroke:#010101;stroke-width:0.451200008392334px"/>
    <path d="M328.37,269.25c3.24,5.88,8.08,7.9,8.81,4.22" transform="translate(0.07)"
          style="fill:none;stroke:#010101;stroke-width:0.451200008392334px"/>
    <path d="M324.68,269.9c2.25,6.56,7.09,8.42,8.15,4.62" transform="translate(0.07)"
          style="fill:none;stroke:#010101;stroke-width:0.451200008392334px"/>
    <path d="M320.76,269.23c1,6.86,5.41,9.56,7.16,6" transform="translate(0.07)"
          style="fill:none;stroke:#010101;stroke-width:0.451200008392334px"/>
    <path d="M317.72,270.6c1,6.86,4.29,8.44,6.34,5.61" transform="translate(0.07)"
          style="fill:none;stroke:#010101;stroke-width:0.451200008392334px"/>
    <path d="M313.71,271c1,6.86,4.29,8.44,6.34,5.61" transform="translate(0.07)"
          style="fill:none;stroke:#010101;stroke-width:0.451200008392334px"/>
    <path d="M315.38,276.13c-1,1.38-2.62,2.59-4.67.49" transform="translate(0.07)"
          style="fill:none;stroke:#010101;stroke-width:0.451200008392334px"/>
    <path d="M448.5,230.72c-8.86,6-47.38,7.45-59.35,7" transform="translate(0.07)"
          style="fill:none;stroke:#010101;stroke-width:0.451200008392334px"/>
    <path d="M442.26,239.3c-12.13,5.34-36.56,7.12-58.69,6.15" transform="translate(0.07)"
          style="fill:none;stroke:#010101;stroke-width:0.451200008392334px"/>
    <path d="M433.91,248.53c-9.34,4.37-43,4.7-54.92,3.73" transform="translate(0.07)"
          style="fill:none;stroke:#010101;stroke-width:0.451200008392334px"/>
    <path d="M418.17,258.73c-10.17,1.78-32.79,1.13-46.23-.16" transform="translate(0.07)"
          style="fill:none;stroke:#010101;stroke-width:0.451200008392334px"/>
    <path d="M392.1,268.12c-7.87-.16-20.7-2.22-29.06-4.33" transform="translate(0.07)"
          style="fill:none;stroke:#010101;stroke-width:0.451200008392334px"/>
    <path d="M383.08,273.95c-5.08.65-20.08-2.59-27.62-6" transform="translate(0.07)"
          style="fill:none;stroke:#010101;stroke-width:0.451200008392334px"/>
    <path d="M376.36,279c-4.43.81-19.34-1.78-27.22-8.74" transform="translate(0.07)"
          style="fill:none;stroke:#010101;stroke-width:0.451200008392334px"/>
    <path d="M362.43,282.85c-6.56-.65-15-5.42-19.55-10.44" transform="translate(0.07)"
          style="fill:none;stroke:#010101;stroke-width:0.451200008392334px"/>
    <path d="M352.26,285.28c-5.74-1.13-10.33-6.31-14.1-11.49" transform="translate(0.07)"
          style="fill:none;stroke:#010101;stroke-width:0.451200008392334px"/>
    <path d="M344.72,285.93c-3-2.1-8.44-6.72-11.15-11" transform="translate(0.07)"
          style="fill:none;stroke:#010101;stroke-width:0.451200008392334px"/>
    <path d="M338.16,286.25c-3.77-1.86-6.8-6.07-8.28-9.88" transform="translate(0.07)"
          style="fill:none;stroke:#010101;stroke-width:0.451200008392334px"/>
    <path d="M331.44,285.77a29,29,0,0,1-5.58-9" transform="translate(0.07)"
          style="fill:none;stroke:#010101;stroke-width:0.451200008392334px"/>
    <path d="M325.54,285.93a28.39,28.39,0,0,1-4.75-8.66" transform="translate(0.07)"
          style="fill:none;stroke:#010101;stroke-width:0.451200008392334px"/>
    <path d="M319.8,285.28c-1.8-1.94-3-4.25-4.8-8.7" transform="translate(0.07)"
          style="fill:none;stroke:#010101;stroke-width:0.451200008392334px"/>
    <path d="M324.23,238.13a22.37,22.37,0,0,0-4.39.36" transform="translate(0.07)"
          style="fill:none;stroke:#010101;stroke-width:0.451200008392334px"/>
    <path d="M322.92,233.23c.12,1-.78.85-.9,1.66" transform="translate(0.07)"
          style="fill:none;stroke:#010101;stroke-width:0.451200008392334px"/>
    <path d="M310,233.06c2.12-.61,4.15,1,6.13.47a5.33,5.33,0,0,1,3.76.38" transform="translate(0.07)"
          style="fill:none;stroke:#010101;stroke-width:0.451200008392334px"/>
    <path d="M312.9,233.23a2.05,2.05,0,0,0,4.1.21" transform="translate(0.07)"
          style="fill:none;stroke:#010101;stroke-width:0.451200008392334px"/>
</svg>