<svg xmlns="http://www.w3.org/2000/svg" id="flag-icon-css-xc" viewBox="0 0 640 480">
    <defs>
        <style>.a{fill:#0f204b;}.b{fill:#ffb612;}</style>
    </defs>
    <title>xc</title>
    <rect class="a" width="639.7" height="480"/>
    <polygon class="b"
             points="94.2 176.4 97.5 186.7 108.4 186.7 99.6 193.1 103 203.4 94.2 197 85.5 203.4 88.3 192.9 80 186.7 90.5 186.7 94.2 176.4"/>
    <polygon class="b"
             points="174.5 206.3 177.9 216.6 188.7 216.6 179.9 223 183.2 233.2 174.5 226.9 165.8 233.2 168.6 222.8 160.3 216.6 170.9 216.6 174.5 206.3"/>
    <polygon class="b"
             points="214.3 249.2 217.6 259.5 228.4 259.5 219.6 265.8 223 276.1 214.3 269.7 205.5 276.1 208.3 265.7 200.1 259.5 210.6 259.4 214.3 249.2"/>
    <polygon class="b"
             points="374.4 335.6 377.7 345.9 388.6 345.9 379.8 352.3 383.2 362.6 374.4 356.2 365.7 362.6 368.5 352.1 360.3 345.9 370.7 345.9 374.4 335.6"/>
    <polygon class="b"
             points="254.8 293.4 258.2 303.6 269 303.6 260.2 310 263.6 320.3 254.8 313.9 246.1 320.3 248.9 309.8 240.7 303.6 251.2 303.6 254.8 293.4"/>
    <polygon class="b"
             points="339.4 385.6 342.7 395.8 353.5 395.8 344.7 402.2 348.1 412.5 339.4 406.1 330.6 412.5 333.4 402 325.2 395.8 335.7 395.8 339.4 385.6"/>
    <polygon class="b"
             points="249.1 356 252.4 366.3 263.3 366.3 254.5 372.7 257.8 383 249.1 376.6 240.3 383 243.1 372.5 234.9 366.3 245.4 366.3 249.1 356"/>
    <polygon class="b"
             points="540 64.6 545.2 80.8 562.2 80.8 548.5 90.8 553.7 107 540 97 526.2 107 530.6 90.5 517.7 80.8 534.2 80.7 540 64.6"/>
</svg>