<svg xmlns="http://www.w3.org/2000/svg" id="flag-icon-css-xe" viewBox="0 0 640 480"><defs><style>.a{fill:#00247d;}.b{fill:#fff;}.c{fill:#cf142b;}</style></defs><title>xe</title><rect class="a" width="640" height="480"/><rect class="a" width="346" height="211"/><path class="b" d="M0,0V23.6L307.3,211H346V187.4L38.7,0ZM346,0V23.6L38.7,211H0V187.4L307.3,0Z"/><path class="b" d="M144.2,0V211h57.7V0ZM0,70.3v70.3H346V70.3Z"/><path class="c" d="M0,84.4v42.2H346V84.4ZM155.7,0V211h34.6V0Z"/><path class="c" d="M0,211l115.3-70.3h25.8L25.8,211ZM0,0,115.3,70.3H89.5L0,15.7ZM204.9,70.3,320.2,0H346L230.7,70.3ZM346,211,230.7,140.7h25.8L346,195.3Z"/></svg>