<svg xmlns="http://www.w3.org/2000/svg" id="flag-icon-css-xg" viewBox="0 0 640 480"><defs><style>.a{fill:#fff;}.b{fill:red;}.c{fill:blue;}</style></defs><title>xg</title><path class="a" d="M0,0H266.7V180H0Z"/><path class="a" d="M373.3,0H640V180H373.3Z"/><path class="a" d="M373.3,300H640V480H373.3Z"/><path class="a" d="M0,300H266.7V480H0Z"/><path class="b" d="M320,0h53.3V180H640V300H373.3V480H320Z"/><path d="M429.1,87.6c2-5.2,2.9-11.1,3.5-16a21.7,21.7,0,0,0,8.4,6.3,58.2,58.2,0,0,1-5.2-12.4,38.6,38.6,0,0,0,10.3,4.8c-11.2-9.8-16.3-37.5-16.3-40.7h3a4.7,4.7,0,0,0,4.4,4.2c6.7,0,13.2-5,13.4-5-8.4,0-9.2-5-13.4-5a4.7,4.7,0,0,0-4.4,4.2h-3V23.7a4.9,4.9,0,0,0,3.7-5c0-4.7-4.5-5.7-4.5-15.1,0,9.4-4.5,10.4-4.5,15.1a4.9,4.9,0,0,0,3.7,5V28h-3a4.7,4.7,0,0,0-4.4-4.2c-4.2,0-5,5-13.4,5,.2,0,6.7,5,13.4,5a4.7,4.7,0,0,0,4.4-4.2h3c0,3.2-5.2,31-16.3,40.7a38.6,38.6,0,0,0,10.3-4.8,58.2,58.2,0,0,1-5.2,12.4,21.7,21.7,0,0,0,8.4-6.3C426.3,76.5,427.1,82.4,429.1,87.6Z"/><path d="M584.2,87.6c2-5.2,2.9-11.1,3.5-16a21.7,21.7,0,0,0,8.4,6.3A58.2,58.2,0,0,1,591,65.6a38.6,38.6,0,0,0,10.3,4.8C590.1,60.6,585,32.8,585,29.6h3a4.7,4.7,0,0,0,4.4,4.2c6.7,0,13.2-5,13.4-5-8.4,0-9.2-5-13.4-5A4.7,4.7,0,0,0,588,28h-3V23.7a4.9,4.9,0,0,0,3.7-5c0-4.7-4.5-5.7-4.5-15.1,0,9.4-4.5,10.4-4.5,15.1a4.9,4.9,0,0,0,3.7,5V28h-3a4.7,4.7,0,0,0-4.4-4.2c-4.2,0-5,5-13.4,5,.2,0,6.7,5,13.4,5a4.7,4.7,0,0,0,4.4-4.2h3c0,3.2-5.2,31-16.3,40.7a38.6,38.6,0,0,0,10.3-4.8,58.2,58.2,0,0,1-5.2,12.4,21.7,21.7,0,0,0,8.4-6.3C581.3,76.5,582.2,82.4,584.2,87.6Z"/><path d="M506.7,132c2-5.2,2.9-11.1,3.5-16a21.7,21.7,0,0,0,8.4,6.3,58.2,58.2,0,0,1-5.2-12.4,38.6,38.6,0,0,0,10.3,4.8C512.6,105,507.4,77.2,507.4,74h3a4.7,4.7,0,0,0,4.4,4.2c6.7,0,13.2-5,13.4-5-8.4,0-9.2-5-13.4-5a4.7,4.7,0,0,0-4.4,4.2h-3V68.1a4.9,4.9,0,0,0,3.7-5c0-4.7-4.5-5.7-4.5-15.1,0,9.4-4.5,10.4-4.5,15.1a4.9,4.9,0,0,0,3.7,5v4.3h-3a4.7,4.7,0,0,0-4.4-4.2c-4.2,0-5,5-13.4,5,.2,0,6.7,5,13.4,5a4.7,4.7,0,0,0,4.4-4.2h3c0,3.2-5.2,31-16.3,40.7a38.6,38.6,0,0,0,10.3-4.8,58.2,58.2,0,0,1-5.2,12.4,21.7,21.7,0,0,0,8.4-6.3C503.8,120.9,504.7,126.8,506.7,132Z"/><path d="M429.1,176.4c2-5.2,2.9-11.1,3.5-16a21.7,21.7,0,0,0,8.4,6.3,58.2,58.2,0,0,1-5.2-12.4,38.6,38.6,0,0,0,10.3,4.8c-11.2-9.8-16.3-37.5-16.3-40.7h3a4.7,4.7,0,0,0,4.4,4.2c6.7,0,13.2-5,13.4-5-8.4,0-9.2-5-13.4-5a4.7,4.7,0,0,0-4.4,4.2h-3v-4.3a4.9,4.9,0,0,0,3.7-5c0-4.7-4.5-5.7-4.5-15.1,0,9.4-4.5,10.4-4.5,15.1a4.9,4.9,0,0,0,3.7,5v4.3h-3a4.7,4.7,0,0,0-4.4-4.2c-4.2,0-5,5-13.4,5,.2,0,6.7,5,13.4,5a4.7,4.7,0,0,0,4.4-4.2h3c0,3.2-5.2,31-16.3,40.7a38.6,38.6,0,0,0,10.3-4.8,58.2,58.2,0,0,1-5.2,12.4,21.7,21.7,0,0,0,8.4-6.3C426.3,165.3,427.1,171.2,429.1,176.4Z"/><path d="M584.2,176.4c2-5.2,2.9-11.1,3.5-16a21.7,21.7,0,0,0,8.4,6.3,58.2,58.2,0,0,1-5.2-12.4,38.6,38.6,0,0,0,10.3,4.8c-11.2-9.8-16.3-37.5-16.3-40.7h3a4.7,4.7,0,0,0,4.4,4.2c6.7,0,13.2-5,13.4-5-8.4,0-9.2-5-13.4-5a4.7,4.7,0,0,0-4.4,4.2h-3v-4.3a4.9,4.9,0,0,0,3.7-5c0-4.7-4.5-5.7-4.5-15.1,0,9.4-4.5,10.4-4.5,15.1a4.9,4.9,0,0,0,3.7,5v4.3h-3a4.7,4.7,0,0,0-4.4-4.2c-4.2,0-5,5-13.4,5,.2,0,6.7,5,13.4,5a4.7,4.7,0,0,0,4.4-4.2h3c0,3.2-5.2,31-16.3,40.7a38.6,38.6,0,0,0,10.3-4.8,58.2,58.2,0,0,1-5.2,12.4,21.7,21.7,0,0,0,8.4-6.3C581.3,165.3,582.2,171.2,584.2,176.4Z"/><path d="M55.8,387.6c2-5.2,2.9-11.1,3.5-16a21.7,21.7,0,0,0,8.4,6.3,58.2,58.2,0,0,1-5.2-12.4,38.6,38.6,0,0,0,10.3,4.8c-11.2-9.8-16.3-37.5-16.3-40.7h3a4.7,4.7,0,0,0,4.4,4.2c6.7,0,13.2-5,13.4-5-8.4,0-9.2-5-13.4-5a4.7,4.7,0,0,0-4.4,4.2h-3v-4.3a4.9,4.9,0,0,0,3.7-5c0-4.7-4.5-5.7-4.5-15.1,0,9.4-4.5,10.4-4.5,15.1a4.9,4.9,0,0,0,3.7,5V328H52a4.7,4.7,0,0,0-4.4-4.2c-4.2,0-5,5-13.4,5,.2,0,6.7,5,13.4,5a4.7,4.7,0,0,0,4.4-4.2h3c0,3.2-5.2,31-16.3,40.7A38.6,38.6,0,0,0,49,365.6a58.2,58.2,0,0,1-5.2,12.4,21.7,21.7,0,0,0,8.4-6.3C52.9,376.5,53.8,382.4,55.8,387.6Z"/><path d="M210.9,387.6c2-5.2,2.9-11.1,3.5-16a21.7,21.7,0,0,0,8.4,6.3,58.2,58.2,0,0,1-5.2-12.4,38.6,38.6,0,0,0,10.3,4.8c-11.2-9.8-16.3-37.5-16.3-40.7h3a4.7,4.7,0,0,0,4.4,4.2c6.7,0,13.2-5,13.4-5-8.4,0-9.2-5-13.4-5a4.7,4.7,0,0,0-4.4,4.2h-3v-4.3a4.9,4.9,0,0,0,3.7-5c0-4.7-4.5-5.7-4.5-15.1,0,9.4-4.5,10.4-4.5,15.1a4.9,4.9,0,0,0,3.7,5V328h-3a4.7,4.7,0,0,0-4.4-4.2c-4.2,0-5,5-13.4,5,.2,0,6.7,5,13.4,5a4.7,4.7,0,0,0,4.4-4.2h3c0,3.2-5.2,31-16.3,40.7a38.6,38.6,0,0,0,10.3-4.8,58.2,58.2,0,0,1-5.2,12.4,21.7,21.7,0,0,0,8.4-6.3C208,376.5,208.9,382.4,210.9,387.6Z"/><path d="M133.3,432c2-5.2,2.9-11.1,3.5-16a21.7,21.7,0,0,0,8.4,6.3,58.2,58.2,0,0,1-5.2-12.4,38.6,38.6,0,0,0,10.3,4.8c-11.2-9.8-16.3-37.5-16.3-40.7h3a4.7,4.7,0,0,0,4.4,4.2c6.7,0,13.2-5,13.4-5-8.4,0-9.2-5-13.4-5a4.7,4.7,0,0,0-4.4,4.2h-3v-4.3a4.9,4.9,0,0,0,3.7-5c0-4.7-4.5-5.7-4.5-15.1,0,9.4-4.5,10.4-4.5,15.1a4.9,4.9,0,0,0,3.7,5v4.3h-3a4.7,4.7,0,0,0-4.4-4.2c-4.2,0-5,5-13.4,5,.2,0,6.7,5,13.4,5a4.7,4.7,0,0,0,4.4-4.2h3c0,3.2-5.2,31-16.3,40.7a38.6,38.6,0,0,0,10.3-4.8,58.2,58.2,0,0,1-5.2,12.4,21.7,21.7,0,0,0,8.4-6.3C130.5,420.9,131.4,426.8,133.3,432Z"/><path d="M55.8,476.4c2-5.2,2.9-11.1,3.5-16a21.7,21.7,0,0,0,8.4,6.3,58.2,58.2,0,0,1-5.2-12.4,38.6,38.6,0,0,0,10.3,4.8c-11.2-9.8-16.3-37.5-16.3-40.7h3a4.7,4.7,0,0,0,4.4,4.2c6.7,0,13.2-5,13.4-5-8.4,0-9.2-5-13.4-5a4.7,4.7,0,0,0-4.4,4.2h-3v-4.3a4.9,4.9,0,0,0,3.7-5c0-4.7-4.5-5.7-4.5-15.1,0,9.4-4.5,10.4-4.5,15.1a4.9,4.9,0,0,0,3.7,5v4.3H52a4.7,4.7,0,0,0-4.4-4.2c-4.2,0-5,5-13.4,5,.2,0,6.7,5,13.4,5a4.7,4.7,0,0,0,4.4-4.2h3c0,3.2-5.2,31-16.3,40.7A38.6,38.6,0,0,0,49,454.4a58.2,58.2,0,0,1-5.2,12.4,21.7,21.7,0,0,0,8.4-6.3C52.9,465.3,53.8,471.2,55.8,476.4Z"/><path d="M210.9,476.4c2-5.2,2.9-11.1,3.5-16a21.7,21.7,0,0,0,8.4,6.3,58.2,58.2,0,0,1-5.2-12.4,38.6,38.6,0,0,0,10.3,4.8c-11.2-9.8-16.3-37.5-16.3-40.7h3a4.7,4.7,0,0,0,4.4,4.2c6.7,0,13.2-5,13.4-5-8.4,0-9.2-5-13.4-5a4.7,4.7,0,0,0-4.4,4.2h-3v-4.3a4.9,4.9,0,0,0,3.7-5c0-4.7-4.5-5.7-4.5-15.1,0,9.4-4.5,10.4-4.5,15.1a4.9,4.9,0,0,0,3.7,5v4.3h-3a4.7,4.7,0,0,0-4.4-4.2c-4.2,0-5,5-13.4,5,.2,0,6.7,5,13.4,5a4.7,4.7,0,0,0,4.4-4.2h3c0,3.2-5.2,31-16.3,40.7a38.6,38.6,0,0,0,10.3-4.8,58.2,58.2,0,0,1-5.2,12.4,21.7,21.7,0,0,0,8.4-6.3C208,465.3,208.9,471.2,210.9,476.4Z"/><path d="M429.1,387.6c2-5.2,2.9-11.1,3.5-16a21.7,21.7,0,0,0,8.4,6.3,58.2,58.2,0,0,1-5.2-12.4,38.6,38.6,0,0,0,10.3,4.8c-11.2-9.8-16.3-37.5-16.3-40.7h3a4.7,4.7,0,0,0,4.4,4.2c6.7,0,13.2-5,13.4-5-8.4,0-9.2-5-13.4-5a4.7,4.7,0,0,0-4.4,4.2h-3v-4.3a4.9,4.9,0,0,0,3.7-5c0-4.7-4.5-5.7-4.5-15.1,0,9.4-4.5,10.4-4.5,15.1a4.9,4.9,0,0,0,3.7,5V328h-3a4.7,4.7,0,0,0-4.4-4.2c-4.2,0-5,5-13.4,5,.2,0,6.7,5,13.4,5a4.7,4.7,0,0,0,4.4-4.2h3c0,3.2-5.2,31-16.3,40.7a38.6,38.6,0,0,0,10.3-4.8,58.2,58.2,0,0,1-5.2,12.4,21.7,21.7,0,0,0,8.4-6.3C426.3,376.5,427.1,382.4,429.1,387.6Z"/><path d="M584.2,387.6c2-5.2,2.9-11.1,3.5-16a21.7,21.7,0,0,0,8.4,6.3,58.2,58.2,0,0,1-5.2-12.4,38.6,38.6,0,0,0,10.3,4.8c-11.2-9.8-16.3-37.5-16.3-40.7h3a4.7,4.7,0,0,0,4.4,4.2c6.7,0,13.2-5,13.4-5-8.4,0-9.2-5-13.4-5A4.7,4.7,0,0,0,588,328h-3v-4.3a4.9,4.9,0,0,0,3.7-5c0-4.7-4.5-5.7-4.5-15.1,0,9.4-4.5,10.4-4.5,15.1a4.9,4.9,0,0,0,3.7,5V328h-3a4.7,4.7,0,0,0-4.4-4.2c-4.2,0-5,5-13.4,5,.2,0,6.7,5,13.4,5a4.7,4.7,0,0,0,4.4-4.2h3c0,3.2-5.2,31-16.3,40.7a38.6,38.6,0,0,0,10.3-4.8,58.2,58.2,0,0,1-5.2,12.4,21.7,21.7,0,0,0,8.4-6.3C581.3,376.5,582.2,382.4,584.2,387.6Z"/><path d="M506.7,432c2-5.2,2.9-11.1,3.5-16a21.7,21.7,0,0,0,8.4,6.3,58.2,58.2,0,0,1-5.2-12.4,38.6,38.6,0,0,0,10.3,4.8c-11.2-9.8-16.3-37.5-16.3-40.7h3a4.7,4.7,0,0,0,4.4,4.2c6.7,0,13.2-5,13.4-5-8.4,0-9.2-5-13.4-5a4.7,4.7,0,0,0-4.4,4.2h-3v-4.3a4.9,4.9,0,0,0,3.7-5c0-4.7-4.5-5.7-4.5-15.1,0,9.4-4.5,10.4-4.5,15.1a4.9,4.9,0,0,0,3.7,5v4.3h-3a4.7,4.7,0,0,0-4.4-4.2c-4.2,0-5,5-13.4,5,.2,0,6.7,5,13.4,5a4.7,4.7,0,0,0,4.4-4.2h3c0,3.2-5.2,31-16.3,40.7a38.6,38.6,0,0,0,10.3-4.8,58.2,58.2,0,0,1-5.2,12.4,21.7,21.7,0,0,0,8.4-6.3C503.8,420.9,504.7,426.8,506.7,432Z"/><path d="M429.1,476.4c2-5.2,2.9-11.1,3.5-16a21.7,21.7,0,0,0,8.4,6.3,58.2,58.2,0,0,1-5.2-12.4,38.6,38.6,0,0,0,10.3,4.8c-11.2-9.8-16.3-37.5-16.3-40.7h3a4.7,4.7,0,0,0,4.4,4.2c6.7,0,13.2-5,13.4-5-8.4,0-9.2-5-13.4-5a4.7,4.7,0,0,0-4.4,4.2h-3v-4.3a4.9,4.9,0,0,0,3.7-5c0-4.7-4.5-5.7-4.5-15.1,0,9.4-4.5,10.4-4.5,15.1a4.9,4.9,0,0,0,3.7,5v4.3h-3a4.7,4.7,0,0,0-4.4-4.2c-4.2,0-5,5-13.4,5,.2,0,6.7,5,13.4,5a4.7,4.7,0,0,0,4.4-4.2h3c0,3.2-5.2,31-16.3,40.7a38.6,38.6,0,0,0,10.3-4.8,58.2,58.2,0,0,1-5.2,12.4,21.7,21.7,0,0,0,8.4-6.3C426.3,465.3,427.1,471.2,429.1,476.4Z"/><path d="M584.2,476.4c2-5.2,2.9-11.1,3.5-16a21.7,21.7,0,0,0,8.4,6.3,58.2,58.2,0,0,1-5.2-12.4,38.6,38.6,0,0,0,10.3,4.8c-11.2-9.8-16.3-37.5-16.3-40.7h3a4.7,4.7,0,0,0,4.4,4.2c6.7,0,13.2-5,13.4-5-8.4,0-9.2-5-13.4-5a4.7,4.7,0,0,0-4.4,4.2h-3v-4.3a4.9,4.9,0,0,0,3.7-5c0-4.7-4.5-5.7-4.5-15.1,0,9.4-4.5,10.4-4.5,15.1a4.9,4.9,0,0,0,3.7,5v4.3h-3a4.7,4.7,0,0,0-4.4-4.2c-4.2,0-5,5-13.4,5,.2,0,6.7,5,13.4,5a4.7,4.7,0,0,0,4.4-4.2h3c0,3.2-5.2,31-16.3,40.7a38.6,38.6,0,0,0,10.3-4.8,58.2,58.2,0,0,1-5.2,12.4,21.7,21.7,0,0,0,8.4-6.3C581.3,465.3,582.2,471.2,584.2,476.4Z"/><path d="M55.8,87.6c2-5.2,2.9-11.1,3.5-16a21.7,21.7,0,0,0,8.4,6.3,58.2,58.2,0,0,1-5.2-12.4,38.6,38.6,0,0,0,10.3,4.8C61.7,60.6,56.5,32.8,56.5,29.6h3A4.7,4.7,0,0,0,64,33.8c6.7,0,13.2-5,13.4-5-8.4,0-9.2-5-13.4-5A4.7,4.7,0,0,0,59.6,28h-3V23.7a4.9,4.9,0,0,0,3.7-5c0-4.7-4.5-5.7-4.5-15.1,0,9.4-4.5,10.4-4.5,15.1a4.9,4.9,0,0,0,3.7,5V28H52a4.7,4.7,0,0,0-4.4-4.2c-4.2,0-5,5-13.4,5,.2,0,6.7,5,13.4,5A4.7,4.7,0,0,0,52,29.6h3c0,3.2-5.2,31-16.3,40.7A38.6,38.6,0,0,0,49,65.6a58.2,58.2,0,0,1-5.2,12.4,21.7,21.7,0,0,0,8.4-6.3C52.9,76.5,53.8,82.4,55.8,87.6Z"/><path d="M210.9,87.6c2-5.2,2.9-11.1,3.5-16a21.7,21.7,0,0,0,8.4,6.3,58.2,58.2,0,0,1-5.2-12.4A38.6,38.6,0,0,0,228,70.4c-11.2-9.8-16.3-37.5-16.3-40.7h3a4.7,4.7,0,0,0,4.4,4.2c6.7,0,13.2-5,13.4-5-8.4,0-9.2-5-13.4-5a4.7,4.7,0,0,0-4.4,4.2h-3V23.7a4.9,4.9,0,0,0,3.7-5c0-4.7-4.5-5.7-4.5-15.1,0,9.4-4.5,10.4-4.5,15.1a4.9,4.9,0,0,0,3.7,5V28h-3a4.7,4.7,0,0,0-4.4-4.2c-4.2,0-5,5-13.4,5,.2,0,6.7,5,13.4,5a4.7,4.7,0,0,0,4.4-4.2h3c0,3.2-5.2,31-16.3,40.7a38.6,38.6,0,0,0,10.3-4.8A58.2,58.2,0,0,1,199,77.9a21.7,21.7,0,0,0,8.4-6.3C208,76.5,208.9,82.4,210.9,87.6Z"/><path d="M133.3,132c2-5.2,2.9-11.1,3.5-16a21.7,21.7,0,0,0,8.4,6.3,58.2,58.2,0,0,1-5.2-12.4,38.6,38.6,0,0,0,10.3,4.8C139.2,105,134.1,77.2,134.1,74h3a4.7,4.7,0,0,0,4.4,4.2c6.7,0,13.2-5,13.4-5-8.4,0-9.2-5-13.4-5a4.7,4.7,0,0,0-4.4,4.2h-3V68.1a4.9,4.9,0,0,0,3.7-5c0-4.7-4.5-5.7-4.5-15.1,0,9.4-4.5,10.4-4.5,15.1a4.9,4.9,0,0,0,3.7,5v4.3h-3a4.7,4.7,0,0,0-4.4-4.2c-4.2,0-5,5-13.4,5,.2,0,6.7,5,13.4,5a4.7,4.7,0,0,0,4.4-4.2h3c0,3.2-5.2,31-16.3,40.7a38.6,38.6,0,0,0,10.3-4.8,58.2,58.2,0,0,1-5.2,12.4,21.7,21.7,0,0,0,8.4-6.3C130.5,120.9,131.4,126.8,133.3,132Z"/><path d="M55.8,176.4c2-5.2,2.9-11.1,3.5-16a21.7,21.7,0,0,0,8.4,6.3,58.2,58.2,0,0,1-5.2-12.4,38.6,38.6,0,0,0,10.3,4.8c-11.2-9.8-16.3-37.5-16.3-40.7h3a4.7,4.7,0,0,0,4.4,4.2c6.7,0,13.2-5,13.4-5-8.4,0-9.2-5-13.4-5a4.7,4.7,0,0,0-4.4,4.2h-3v-4.3a4.9,4.9,0,0,0,3.7-5c0-4.7-4.5-5.7-4.5-15.1,0,9.4-4.5,10.4-4.5,15.1a4.9,4.9,0,0,0,3.7,5v4.3H52a4.7,4.7,0,0,0-4.4-4.2c-4.2,0-5,5-13.4,5,.2,0,6.7,5,13.4,5a4.7,4.7,0,0,0,4.4-4.2h3c0,3.2-5.2,31-16.3,40.7A38.6,38.6,0,0,0,49,154.4a58.2,58.2,0,0,1-5.2,12.4,21.7,21.7,0,0,0,8.4-6.3C52.9,165.3,53.8,171.2,55.8,176.4Z"/><path d="M210.9,176.4c2-5.2,2.9-11.1,3.5-16a21.7,21.7,0,0,0,8.4,6.3,58.2,58.2,0,0,1-5.2-12.4,38.6,38.6,0,0,0,10.3,4.8c-11.2-9.8-16.3-37.5-16.3-40.7h3a4.7,4.7,0,0,0,4.4,4.2c6.7,0,13.2-5,13.4-5-8.4,0-9.2-5-13.4-5a4.7,4.7,0,0,0-4.4,4.2h-3v-4.3a4.9,4.9,0,0,0,3.7-5c0-4.7-4.5-5.7-4.5-15.1,0,9.4-4.5,10.4-4.5,15.1a4.9,4.9,0,0,0,3.7,5v4.3h-3a4.7,4.7,0,0,0-4.4-4.2c-4.2,0-5,5-13.4,5,.2,0,6.7,5,13.4,5a4.7,4.7,0,0,0,4.4-4.2h3c0,3.2-5.2,31-16.3,40.7a38.6,38.6,0,0,0,10.3-4.8,58.2,58.2,0,0,1-5.2,12.4,21.7,21.7,0,0,0,8.4-6.3C208,165.3,208.9,171.2,210.9,176.4Z"/><path class="c" d="M266.7,0H320V480H266.7V300H0V180H266.7Z"/><path class="a" d="M288,0h64V204H640v72H352V480H288V276H0V204H288Z"/></svg>