<svg xmlns="http://www.w3.org/2000/svg" id="flag-icon-css-xf" viewBox="0 0 640 480"><defs><style>.a{fill:#002395;}.b{fill:#fff;}.c{fill:#ed2939;}</style></defs><title>xf</title><rect class="a" width="640" height="480"/><rect class="b" width="260.3" height="174.93"/><rect class="a" width="85.3" height="170.67"/><rect class="c" x="170.7" width="85.3" height="170.67"/><path class="b" d="M399.7,234.2l13.8,21.9h39v76.3l-29.3-45.9-39.5,62.9h19.2l20.3-36.3,41.6,74.7,41.6-74.7,20.3,36.3h19.2l-39.5-62.9L477,332.3V290.2h17.6l13.1-20.8H477V256.1h39l13.8-21.9Zm45.9,93.3H402.9v14.9h42.7Zm81.1,0H483.9v14.9h42.7Z"/><path class="b" d="M464.7,402.7l13.1,40.5-34.5-25.1h42.7l-34.5,25.1Z"/><path class="b" d="M416.7,366.5,429.9,407l-34.5-25.1h42.7L403.6,407Z"/><path class="b" d="M512.7,366.5,525.9,407l-34.5-25.1h42.7L499.6,407Z"/><path class="b" d="M376.2,258.7l13.1,40.5-34.5-25.1h42.7l-34.5,25.1Z"/><path class="b" d="M553.3,258.7l13.1,40.5-34.5-25.1h42.7l-34.5,25.1Z"/></svg>